<svg width="102" height="17" viewBox="0 0 102 17" fill="none" xmlns="http://www.w3.org/2000/svg">
<path id="Vector" fill-rule="evenodd" clip-rule="evenodd" d="M0 0V16.9501H4.04836V10.0904H10.9782V16.9501H15.0265V0H10.9782V6.83619H4.04836V0H0ZM62.8495 16.9501H50.8949V0H62.8256V3.25421H54.9432V6.83619H62.2065V10.0904H54.9432V13.6958H62.8495V16.9501ZM93.4983 16.9501H87.1876V0H93.4983C98.7612 0 102 3.17227 102 8.47501C102 13.766 98.7612 16.9501 93.4983 16.9501ZM91.236 13.5319H93.3554C96.3083 13.5436 97.9277 12.1507 97.9277 8.47501C97.9277 4.78768 96.3083 3.40639 93.3078 3.39469H91.236V13.5319ZM82.9884 17C81.8097 17 80.8214 16.0517 80.8452 14.8695C80.8214 13.7223 81.8097 12.7859 82.9884 12.7859C84.1315 12.7859 85.1436 13.7223 85.1555 14.8695C85.1436 16.0517 84.1315 17 82.9884 17ZM35.5508 0V16.9501H39.5991V11.6355H42.4807C46.4337 11.6355 48.8746 9.32952 48.8627 5.82949C48.8746 2.37628 46.4814 0 42.5997 0H35.5508ZM41.7424 8.47501H39.5991V3.23081H41.7424C43.6594 3.23081 44.6715 4.24921 44.6715 5.82949C44.6715 7.43319 43.6594 8.4867 41.7424 8.47501ZM64.8816 0H71.9305C75.8121 0 78.2054 2.16558 78.1935 5.61879C78.2054 7.95995 77.1099 9.62217 75.2048 10.4767L78.8126 16.9501H74.3595L71.1922 11.1205H68.93V16.9501H64.8816V0ZM68.93 7.93653H71.0731C72.9902 7.94824 74.0023 7.21078 74.0023 5.61879C74.0023 4.0268 72.9902 3.23081 71.0731 3.23081H68.93V7.93653ZM21.6183 0H17.0698L21.0749 7.11713H25.3265L20.2195 16.9812H24.7383L33.5299 0H29.0112L25.3298 7.11069L21.6183 0Z" fill="black"/>
</svg>
