<svg width="24" height="25" viewBox="0 0 24 25" fill="none" xmlns="http://www.w3.org/2000/svg">
<g id="Facebook - Negative" clip-path="url(#clip0_2_227)">
<path id="Vector" d="M24 12.3728C24 5.72934 18.6274 0.34375 12 0.34375C5.37258 0.34375 0 5.72934 0 12.3728C0 18.3768 4.3882 23.3533 10.125 24.2557V15.85H7.07812V12.3728H10.125V9.72265C10.125 6.70787 11.9166 5.0426 14.6576 5.0426C15.9701 5.0426 17.3438 5.27754 17.3438 5.27754V8.23782H15.8306C14.34 8.23782 13.875 9.16514 13.875 10.1174V12.3728H17.2031L16.6711 15.85H13.875V24.2557C19.6118 23.3533 24 18.3768 24 12.3728Z" fill="#C4C4C4"/>
</g>
<defs>
<clipPath id="clip0_2_227">
<rect width="24" height="24.0581" fill="white" transform="translate(0 0.34375)"/>
</clipPath>
</defs>
</svg>
