<svg width="24" height="25" viewBox="0 0 24 25" fill="none" xmlns="http://www.w3.org/2000/svg">
<g id="Group">
<path id="Vector" d="M12 2.50992C15.2063 2.50992 15.5859 2.52402 16.8469 2.5804C18.0188 2.63209 18.6516 2.82944 19.0734 2.9939C19.6313 3.21005 20.0344 3.47318 20.4516 3.89138C20.8734 4.31428 21.1313 4.71368 21.3469 5.27284C21.5109 5.69574 21.7078 6.33478 21.7594 7.5048C21.8156 8.77349 21.8297 9.15409 21.8297 12.3634C21.8297 15.5774 21.8156 15.958 21.7594 17.222C21.7078 18.3967 21.5109 19.0311 21.3469 19.454C21.1313 20.0131 20.8687 20.4172 20.4516 20.8354C20.0297 21.2583 19.6313 21.5168 19.0734 21.7329C18.6516 21.8974 18.0141 22.0947 16.8469 22.1464C15.5813 22.2028 15.2016 22.2169 12 22.2169C8.79375 22.2169 8.41406 22.2028 7.15313 22.1464C5.98125 22.0947 5.34844 21.8974 4.92656 21.7329C4.36875 21.5168 3.96563 21.2536 3.54844 20.8354C3.12656 20.4125 2.86875 20.0131 2.65313 19.454C2.48906 19.0311 2.29219 18.392 2.24063 17.222C2.18438 15.9533 2.17031 15.5727 2.17031 12.3634C2.17031 9.14939 2.18438 8.76879 2.24063 7.5048C2.29219 6.33008 2.48906 5.69574 2.65313 5.27284C2.86875 4.71368 3.13125 4.30958 3.54844 3.89138C3.97031 3.46849 4.36875 3.21005 4.92656 2.9939C5.34844 2.82944 5.98594 2.63209 7.15313 2.5804C8.41406 2.52402 8.79375 2.50992 12 2.50992ZM12 0.34375C8.74219 0.34375 8.33438 0.357847 7.05469 0.414233C5.77969 0.470619 4.90313 0.677368 4.14375 0.973396C3.35156 1.28352 2.68125 1.69232 2.01563 2.36426C1.34531 3.03149 0.9375 3.70343 0.628125 4.49283C0.332812 5.25875 0.126563 6.13273 0.0703125 7.41082C0.0140625 8.6983 0 9.1071 0 12.3728C0 15.6385 0.0140625 16.0473 0.0703125 17.3301C0.126563 18.6082 0.332812 19.4869 0.628125 20.2481C0.9375 21.0422 1.34531 21.7141 2.01563 22.3814C2.68125 23.0486 3.35156 23.4621 4.13906 23.7675C4.90313 24.0635 5.775 24.2703 7.05 24.3267C8.32969 24.3831 8.7375 24.3972 11.9953 24.3972C15.2531 24.3972 15.6609 24.3831 16.9406 24.3267C18.2156 24.2703 19.0922 24.0635 19.8516 23.7675C20.6391 23.4621 21.3094 23.0486 21.975 22.3814C22.6406 21.7141 23.0531 21.0422 23.3578 20.2528C23.6531 19.4869 23.8594 18.6129 23.9156 17.3348C23.9719 16.052 23.9859 15.6432 23.9859 12.3775C23.9859 9.1118 23.9719 8.703 23.9156 7.42022C23.8594 6.14213 23.6531 5.26345 23.3578 4.50223C23.0625 3.70343 22.6547 3.03149 21.9844 2.36426C21.3188 1.69702 20.6484 1.28352 19.8609 0.978095C19.0969 0.682067 18.225 0.475318 16.95 0.418932C15.6656 0.357847 15.2578 0.34375 12 0.34375Z" fill="#C4C4C4"/>
<path id="Vector_2" d="M12 6.19336C8.59688 6.19336 5.83594 8.96098 5.83594 12.3723C5.83594 15.7837 8.59688 18.5513 12 18.5513C15.4031 18.5513 18.1641 15.7837 18.1641 12.3723C18.1641 8.96098 15.4031 6.19336 12 6.19336ZM12 16.3805C9.79219 16.3805 8.00156 14.5855 8.00156 12.3723C8.00156 10.1592 9.79219 8.36423 12 8.36423C14.2078 8.36423 15.9984 10.1592 15.9984 12.3723C15.9984 14.5855 14.2078 16.3805 12 16.3805Z" fill="#C4C4C4"/>
<path id="Vector_3" d="M19.8469 5.94841C19.8469 6.74721 19.2 7.39096 18.4078 7.39096C17.6109 7.39096 16.9688 6.74251 16.9688 5.94841C16.9688 5.1496 17.6156 4.50586 18.4078 4.50586C19.2 4.50586 19.8469 5.1543 19.8469 5.94841Z" fill="#C4C4C4"/>
</g>
</svg>
