<svg width="24" height="25" viewBox="0 0 24 25" fill="none" xmlns="http://www.w3.org/2000/svg">
<g id="Group">
<path id="Vector" d="M22.2234 0.34375H1.77187C0.792187 0.34375 0 1.11906 0 2.07763V22.6633C0 23.6219 0.792187 24.4019 1.77187 24.4019H22.2234C23.2031 24.4019 24 23.6219 24 22.668V2.07763C24 1.11906 23.2031 0.34375 22.2234 0.34375ZM7.12031 20.8448H3.55781V9.36084H7.12031V20.8448ZM5.33906 7.79613C4.19531 7.79613 3.27188 6.87045 3.27188 5.72863C3.27188 4.58681 4.19531 3.66114 5.33906 3.66114C6.47813 3.66114 7.40156 4.58681 7.40156 5.72863C7.40156 6.86575 6.47813 7.79613 5.33906 7.79613ZM20.4516 20.8448H16.8937V15.2626C16.8937 13.9328 16.8703 12.2177 15.0422 12.2177C13.1906 12.2177 12.9094 13.6697 12.9094 15.1686V20.8448H9.35625V9.36084H12.7687V10.9303H12.8156C13.2891 10.0281 14.4516 9.07421 16.1813 9.07421C19.7859 9.07421 20.4516 11.4518 20.4516 14.5437V20.8448Z" fill="#C4C4C4"/>
</g>
</svg>
