<svg width="24" height="24" viewBox="0 0 24 24" fill="none" xmlns="http://www.w3.org/2000/svg">
<g id="Group 1">
<path id="icon-twitter" fill-rule="evenodd" clip-rule="evenodd" d="M12 24C18.6274 24 24 18.6274 24 12C24 5.37258 18.6274 0 12 0C5.37258 0 0 5.37258 0 12C0 18.6274 5.37258 24 12 24ZM8.85313 15.7683C7.41374 16.8131 5.93781 17.2077 4.25 17.1127C4.50317 17.3152 4.50391 17.3137 4.50479 17.3118C4.50569 17.31 4.50672 17.3078 4.77608 17.5218C10.2779 21.8765 18.3224 16.4039 18.5416 9.32389C18.5562 8.85627 18.6951 8.5567 19.0531 8.27174C19.071 8.25725 19.089 8.24275 19.1071 8.22819C19.4355 7.96376 19.7844 7.68283 19.9299 7.20498C19.9118 7.21082 19.8938 7.21664 19.8759 7.22244C19.4452 7.36181 19.0628 7.48556 18.5928 7.38034C18.6944 7.25803 18.8021 7.14304 18.9085 7.02951C19.2532 6.66151 19.5835 6.30896 19.6449 5.7729L19.644 5.77329C19.2864 5.92656 18.9798 6.05797 18.6804 6.18937C18.1032 6.4451 17.6429 6.45241 17.0584 6.02863C15.0564 4.58924 12.353 5.70714 11.9365 8.16214C11.8805 8.49786 11.9436 8.80052 11.9941 9.04255C12.0622 9.3694 12.1072 9.58567 11.805 9.62345C11.6035 9.64744 11.2759 9.54855 10.932 9.44471C10.7522 9.39043 10.5679 9.33479 10.3948 9.29466C10.3044 9.27658 10.219 9.25354 10.1304 9.22962C10.1115 9.22454 10.0925 9.21941 10.0733 9.21429C8.10787 8.71013 6.50042 7.63607 5.12679 6.05785C4.30115 7.76028 4.70301 9.16314 6.01819 10.4491C5.7056 10.4744 5.45895 10.385 5.21893 10.298C5.0438 10.2345 4.87219 10.1722 4.68109 10.1568C4.71762 11.7862 5.64556 12.7287 7.07764 13.3571C6.80195 13.4674 6.55227 13.465 6.29951 13.4625C6.15035 13.4611 6.00011 13.4596 5.84283 13.4813C6.39082 14.8549 7.39913 15.5198 8.85313 15.7683Z" fill="#C4C4C4"/>
</g>
</svg>
