<svg width="214" height="58" viewBox="0 0 214 58" fill="none" xmlns="http://www.w3.org/2000/svg">
<g id="bluepoint-white" clip-path="url(#clip0_2_187)">
<path id="Vector" d="M208.114 25.4388C204.79 29.4827 200.98 33.0633 197.154 36.5941C193.042 40.3898 188.962 44.2241 185.219 48.3508C180.825 53.1947 172.672 54.2981 167.048 48.8915C162.644 44.6544 161.541 36.9803 166.74 31.5682C174.221 23.7782 181.762 16.0323 189.927 8.9375C190.941 10.0243 190.252 11.1939 190.026 12.2973C188.29 20.6831 195.87 28.0097 204.194 26.0236C205.468 25.7201 206.675 24.7105 208.114 25.4388Z" fill="#5C5C5C"/>
<path id="Vector_2" d="M208.11 25.4388C205.277 26.4098 202.531 27.6401 199.356 26.9008C191.489 25.0692 187.503 18.5812 189.559 10.7802C189.719 10.1734 189.808 9.54995 189.929 8.93756C193.407 4.15986 197.84 1.33516 203.976 2.49373C208.915 3.4261 212.262 6.54319 213.513 11.2933C214.742 15.9717 213.684 20.3632 209.968 23.8169C209.367 24.3741 208.733 24.8982 208.11 25.4333V25.4388Z" fill="white"/>
<path id="Vector_3" d="M125.138 15.8091C125.138 13.6134 125.105 11.4121 125.16 9.21632C125.176 8.44946 124.719 7.29089 125.656 7.00953C126.803 6.66748 128.534 6.20957 129.195 7.20814C129.912 8.29499 130.193 7.69915 130.789 7.44537C136.059 5.20548 139.934 7.72122 139.984 13.4313C140.012 16.5429 139.885 19.66 140.028 22.766C140.116 24.6694 139.141 24.7466 137.68 24.7963C136.048 24.8514 135.386 24.4321 135.469 22.6612C135.612 19.7372 135.502 16.8022 135.508 13.8727C135.508 12.0741 134.758 10.7942 132.883 10.6287C130.855 10.4466 129.747 11.6879 129.647 13.5637C129.487 16.576 129.471 19.6048 129.57 22.6226C129.631 24.3384 129.013 24.8183 127.359 24.8018C125.772 24.7852 125 24.4321 125.099 22.6557C125.231 20.3717 125.132 18.0821 125.132 15.7926L125.138 15.8091Z" fill="white"/>
<path id="Vector_4" d="M47.8884 15.8635C47.8884 17.971 47.8939 20.0785 47.8884 22.186C47.8773 24.7072 45.6336 26.1582 43.7702 24.5527C42.833 23.7417 42.596 24.1114 41.9289 24.3927C37.0224 26.4506 32.9594 23.8245 32.8988 18.5447C32.8602 15.1573 32.9815 11.7644 32.8547 8.37695C32.783 6.44049 33.9628 6.70531 35.1591 6.67221C36.4215 6.6391 37.48 6.56738 37.3918 8.43764C37.254 11.3616 37.3918 14.2967 37.3422 17.2317C37.3091 19.3226 37.899 20.9722 40.275 21.0164C42.8055 21.0605 43.445 19.3447 43.4174 17.1379C43.3788 14.2967 43.5387 11.4499 43.3623 8.6197C43.241 6.64462 44.2664 6.68324 45.6887 6.64462C47.2544 6.60049 48.0538 6.8984 47.927 8.72452C47.7671 11.0968 47.8884 13.4857 47.8884 15.869V15.8635Z" fill="white"/>
<path id="Vector_5" d="M149.065 2.01657C151.243 1.50349 151.48 2.65654 151.391 4.28405C151.309 5.84535 150.84 7.69906 153.652 7.38459C154.87 7.25218 154.407 8.57074 154.484 9.31002C154.578 10.2038 154.197 10.7444 153.222 10.59C151.496 10.3141 151.276 11.2685 151.342 12.6699C151.424 14.496 151.397 16.3331 151.353 18.1648C151.314 19.7481 151.364 21.0722 153.558 21.0888C155.002 21.0998 154.374 22.4404 154.484 23.2404C154.622 24.2334 154.186 24.6693 153.117 24.7962C149.363 25.232 146.937 23.1742 146.876 19.3399C146.843 17.3262 146.92 15.307 146.849 13.2933C146.81 12.1568 147.4 10.8548 145.344 10.3803C144.302 10.1431 144.362 7.70458 145.289 7.52803C147.582 7.08667 146.794 5.5695 146.832 4.3999C146.887 2.76688 146.81 1.23868 149.054 2.01105L149.065 2.01657Z" fill="white"/>
<path id="Vector_6" d="M20.654 10.8676C20.654 7.84432 20.7422 4.8155 20.6209 1.79771C20.5438 -0.083582 21.6684 0.0543425 22.9033 0.0488255C24.1657 0.0433086 25.2022 -0.0394462 25.1691 1.82529C25.0699 7.3202 25.1526 12.8206 25.1195 18.3155C25.1084 19.8217 25.1911 21.1292 27.2199 21.0244C28.9675 20.9361 28.3335 22.2712 28.4493 23.1484C28.6036 24.296 28.1681 24.7152 26.9442 24.7925C22.8757 25.0518 20.6926 23.1595 20.654 19.11C20.6265 16.3625 20.654 13.6151 20.654 10.8621V10.8676Z" fill="white"/>
<path id="Vector_7" d="M118.893 16.0349C118.893 18.3299 118.788 20.6305 118.926 22.9145C119.036 24.68 118.149 24.8786 116.765 24.7738C115.613 24.6855 114.35 25.0772 114.383 23.1076C114.472 18.1534 114.466 13.1936 114.383 8.23938C114.35 6.15396 115.778 6.80497 116.831 6.7167C117.983 6.62291 119.003 6.57325 118.921 8.32214C118.794 10.8875 118.887 13.4584 118.887 16.0294L118.893 16.0349Z" fill="white"/>
<path id="Vector_8" d="M82.1269 46.5449C82.1269 45.447 82.0332 44.3326 82.1489 43.2458C82.2923 41.9382 81.3165 39.1301 84.4864 41.2155C84.5691 41.2707 84.8007 41.061 84.9716 41.0279C90.286 39.919 91.769 41.1162 91.78 46.5284C91.78 47.9959 91.7965 49.4634 91.78 50.9309C91.769 51.6316 91.9454 52.5364 90.7932 52.4812C89.663 52.426 89.9111 51.5047 89.9001 50.8316C89.867 48.9062 89.9111 46.9808 89.8725 45.0553C89.8284 43.1023 88.9188 41.9493 86.8294 41.9989C84.8392 42.0431 84.1171 43.2458 84.0454 45.0333C84.0123 45.8553 84.1722 46.7159 83.9847 47.4994C83.5933 49.1489 84.9936 52.255 83.1578 52.1943C81.0243 52.1226 82.6286 49.0496 82.1434 47.3669C82.0718 47.1132 82.1324 46.8208 82.1324 46.5449H82.1269Z" fill="white"/>
<path id="Vector_9" d="M123.693 52.5689C122.469 52.6296 121.295 52.3868 120.22 51.8517C119.735 51.6089 118.82 51.3993 119.173 50.5441C119.498 49.7607 120.16 49.9207 120.777 50.3124C122.111 51.151 123.589 51.0296 125.044 50.8862C126.13 50.7759 127.023 50.2462 127.073 49.0325C127.128 47.7415 126.136 47.3443 125.094 47.1733C124.195 47.0298 123.252 47.1126 122.359 46.9471C120.705 46.6436 119.426 45.9044 119.355 43.9569C119.283 42.059 120.386 41.1542 122.034 40.6522C123.484 40.2164 124.912 40.2329 126.34 40.7625C126.974 40.9942 128.054 40.9943 127.867 41.8604C127.674 42.7431 126.797 42.4563 126.036 42.2135C124.994 41.8825 123.886 41.7997 122.778 41.9983C121.753 42.1859 121.053 42.6824 121.064 43.7803C121.075 44.7513 121.681 45.2368 122.629 45.3582C123.539 45.4685 124.438 45.6782 125.347 45.7444C127.315 45.8933 128.743 46.6436 128.793 48.8449C128.842 50.9855 127.392 51.8903 125.584 52.3647C124.972 52.5247 124.316 52.5027 123.677 52.5689H123.693Z" fill="white"/>
<path id="Vector_10" d="M111.491 48.0215C111.491 49.2132 111.502 50.4049 111.491 51.5965C111.48 52.2972 111.033 52.5344 110.399 52.4903C109.826 52.4517 109.638 52.071 109.633 51.5579C109.633 48.165 109.633 44.772 109.633 41.3791C109.633 40.9929 109.925 40.4302 110.151 40.5681C112.285 41.8811 114.401 39.5585 116.502 40.5957C116.982 40.8329 117.665 41.0205 117.516 41.6936C117.4 42.2232 116.915 42.5432 116.259 42.5211C111.733 42.3722 111.535 42.5597 111.524 46.9237C111.524 47.2878 111.524 47.6574 111.524 48.0215H111.496H111.491Z" fill="white"/>
<path id="Vector_11" d="M78.5071 40.5366C78.0661 42.3352 75.9657 40.978 75.9271 42.5227C75.8665 45.0771 75.6018 47.648 76.109 50.1858C76.1642 50.4562 76.5886 50.732 76.9029 50.8534C77.5314 51.0961 78.7387 50.9582 78.3362 51.9788C77.9283 53.005 76.7375 52.5857 75.9271 52.2823C74.6867 51.8189 74.1244 50.7927 74.1244 49.4686C74.1244 47.9073 74.1133 46.3515 74.1078 44.7902C74.1078 44.2385 74.3394 43.422 74.0692 43.1793C71.9027 41.2594 74.4496 39.4719 74.1409 37.6292C74.0472 37.0775 74.2016 36.5203 74.9899 36.5479C75.7397 36.581 75.9326 37.0996 75.8389 37.6733C75.4971 39.7036 76.2854 40.7297 78.5071 40.5256V40.5366Z" fill="white"/>
<path id="Vector_12" d="M63.2366 46.5009C63.2366 45.403 63.0933 44.2831 63.2752 43.2238C63.4571 42.1645 62.0844 39.2571 65.4583 41.2046C66.1695 41.6128 67.6745 40.1177 69.0196 40.3936C69.8466 40.5646 71.1642 40.4653 70.9491 41.7232C70.7397 42.9424 69.7308 42.2142 68.9755 42.0818C66.5664 41.6515 65.1606 42.7824 65.0228 45.3313C64.9235 47.2457 65.0062 49.1656 64.9842 51.08C64.9787 51.6868 65.1055 52.4316 64.1407 52.4758C63.1374 52.5199 63.2476 51.7806 63.2421 51.1572C63.2256 49.6069 63.2421 48.0512 63.2366 46.5009Z" fill="white"/>
<path id="Vector_13" d="M117.334 3.55048C115.68 3.43463 114.412 3.95322 114.346 1.94504C114.286 -0.0631389 115.377 0.0361667 116.722 0.0527176C117.941 0.0692686 118.983 -0.0962408 118.977 1.77953C118.977 3.60565 118.034 3.63324 117.329 3.556L117.334 3.55048Z" fill="white"/>
<path id="Vector_14" d="M15.3819 13.9705C15.2551 7.40531 10.9716 4.86749 4.51043 8.07286C4.51043 5.88262 4.36158 4.06753 4.54902 2.28003C4.753 0.371157 3.98671 0.0401379 2.26117 0.00151904C0.364725 -0.0370998 -0.0211783 0.65804 0.00087333 2.38485C0.0835669 8.97764 0.0339508 15.5704 0.0394637 22.1632C0.0394637 24.7121 1.95796 26.1189 3.95363 24.6514C5.10582 23.8073 5.54686 24.21 6.40687 24.5466C11.0487 26.3616 14.9684 23.9011 15.3323 18.9082C15.4536 17.2697 15.415 15.6146 15.3819 13.965V13.9705ZM10.6353 18.8751C10.2935 20.2488 9.37833 21.0433 7.86779 21.0709C6.25802 21.0984 5.25467 20.3371 4.8798 18.8034C4.46633 17.0986 4.47184 15.3718 4.73646 13.6285C5.02313 11.7472 5.88866 10.5445 7.94497 10.6383C10.0289 10.7376 10.7069 12.1444 10.8558 13.9595C10.9109 14.5939 10.8668 15.2394 10.8668 15.8794L10.9771 15.8904C10.8723 16.889 10.8723 17.9096 10.6298 18.8751H10.6353Z" fill="white"/>
<path id="Vector_15" d="M89.2267 13.2867C89.0172 7.78626 85.092 5.24845 80.0201 7.31732C79.3917 7.5711 79.1381 7.78626 78.2836 7.22905C75.9737 5.70636 74.193 6.84837 74.193 9.50756C74.193 15.9183 74.215 22.3235 74.1765 28.7342C74.1654 30.2955 74.0386 31.5093 76.3485 31.4707C78.4379 31.4376 78.7797 30.621 78.6364 28.8666C78.5151 27.3274 78.6088 25.7661 78.6088 23.802C79.2704 24.0724 79.5901 24.2048 79.9154 24.3427C85.0038 26.4612 88.9621 23.9896 89.2046 18.5113C89.2818 16.7734 89.2928 15.0301 89.2267 13.2922V13.2867ZM84.4966 18.9912C84.1217 20.3705 83.1515 21.0987 81.6464 21.0711C80.2627 21.0436 79.4137 20.3539 79.0058 19.0905C78.3938 17.2093 78.5592 15.2728 78.8018 13.375C79.0002 11.8081 79.8658 10.6275 81.674 10.6275C83.5925 10.6275 84.4525 11.7861 84.673 13.535C84.7778 14.3515 84.7778 15.179 84.8439 16.321C84.7612 17.0106 84.7557 18.0368 84.4911 18.9968L84.4966 18.9912Z" fill="white"/>
<path id="Vector_16" d="M60.0077 17.204C61.0992 17.1102 62.2018 17.182 63.3044 17.182C64.4952 17.182 65.7025 17.0661 66.8768 17.2095C68.9221 17.4578 69.3631 16.542 69.1977 14.6938C68.7677 9.96024 66.1215 6.92038 62.075 6.6997C57.2843 6.44041 54.3294 8.69685 53.508 13.6676C52.896 17.3971 53.1717 21.2149 56.5731 23.6092C59.6383 25.7719 63.1556 25.5954 66.4743 23.8906C67.2737 23.4824 68.9551 23.0906 67.8581 21.5955C67.1414 20.6246 66.4302 19.2729 64.5724 20.5087C62.7255 21.739 60.5535 21.739 58.7893 20.0177C58.2105 19.455 57.6923 18.6219 57.9018 17.8109C58.1939 16.6854 59.2745 17.2647 60.0077 17.1985V17.204ZM61.1378 10.3023C62.9957 10.2747 64.6606 11.3947 64.4621 13.1932C64.2526 15.0855 62.1963 13.629 61.0496 14.2359C60.0628 13.607 58.1168 15.0359 58.001 13.116C57.8962 11.4112 59.4068 10.3299 61.1378 10.3023Z" fill="white"/>
<path id="Vector_17" d="M109.119 16.1124C109.163 9.56376 106.682 6.60114 101.241 6.68941C97.1672 6.75562 94.4658 9.16654 94.0358 13.1112C93.2916 19.9577 95.0006 23.8748 99.3613 24.8017C104.334 25.8554 109.56 23.6541 109.119 16.1069V16.1124ZM104.499 18.4626C104.163 20.046 103.259 21.0611 101.495 21.0556C99.7196 21.0446 98.7714 19.9798 98.5564 18.4075C98.3469 16.8903 98.369 15.318 98.4792 13.7787C98.6115 11.9471 99.5322 10.6285 101.55 10.6396C103.584 10.6506 104.384 12.0243 104.593 13.8339C104.676 14.5511 104.604 15.2904 104.604 16.0131H104.698C104.637 16.8296 104.665 17.6682 104.499 18.4571V18.4626Z" fill="white"/>
<path id="Vector_18" d="M46.1665 45.7994C46.1334 45.2532 46.1058 44.696 45.9956 44.1608C45.334 40.9665 42.958 39.6645 39.8266 40.7182C39.3139 40.8893 38.9721 41.612 38.1728 40.9555C36.8221 39.8521 36.4472 40.8231 36.4417 42.0478C36.4252 46.8145 36.4252 51.5757 36.4417 56.3423C36.4417 57.0154 36.2102 57.9588 37.3293 58.0029C38.4705 58.0471 38.272 57.1092 38.283 56.4196C38.3106 54.8748 38.294 53.3301 38.294 51.7191C44.0385 53.5452 46.4973 51.6143 46.161 45.7994H46.1665ZM41.2104 50.9522C39.11 50.8971 38.2499 49.5178 38.3051 46.009C38.4649 44.2601 38.4043 42.0534 41.3206 42.0037C43.4652 41.9651 44.474 43.4547 44.4575 46.5221C44.4409 49.5509 43.3714 51.0129 41.2104 50.9522Z" fill="white"/>
<path id="Vector_19" d="M58.7724 45.5431C58.7393 41.3833 55.7292 39.2261 51.793 40.6164C50.9937 40.8978 49.5989 41.2343 49.9407 42.2605C50.4589 43.8107 51.3465 42.2549 52.0962 42.1556C53.5296 41.9736 55.0456 41.5212 56.2805 42.6908C56.8925 43.2756 57.3445 44.1638 56.9917 44.9362C56.264 46.5251 54.7259 45.6479 53.5737 45.7141C50.492 45.8906 48.8988 47.0437 49.0311 49.2781C49.1634 51.5235 50.9275 52.7151 53.8879 52.5C54.5164 52.4558 55.1338 52.2627 55.7513 52.0972C57.7727 51.5492 58.7816 50.0982 58.7779 47.7443C58.7779 47.0106 58.7779 46.2768 58.7779 45.5431H58.7724ZM57.0578 48.3347C56.9145 50.387 55.619 51.0656 53.695 50.9828C52.2561 50.9221 50.6574 50.8504 50.7842 48.9967C50.944 46.674 52.9287 47.0051 54.6708 46.9885C55.4481 47.325 57.2122 46.1554 57.0578 48.3402V48.3347Z" fill="white"/>
<path id="Vector_20" d="M100.106 47.0333C100.878 46.8347 101.743 46.9947 102.57 46.9892C105.889 46.9892 106.589 45.7258 104.908 42.7853C103.733 40.733 101.17 39.8116 98.9702 40.6557C96.3295 41.6598 95.0505 44.7272 95.7672 48.3464C96.2909 51.0166 98.2259 52.5338 101.06 52.5117C102.3 52.6055 103.408 52.2248 104.411 51.5242C104.77 51.2759 105.26 51.0056 104.974 50.4539C104.654 49.8415 104.163 49.8636 103.623 50.2442C102.493 51.0332 101.214 51.1269 99.9294 50.8566C98.3858 50.5311 97.4541 49.367 97.5203 47.9216C97.603 46.1065 99.2127 47.2651 100.106 47.0389V47.0333ZM97.5258 44.7769C97.3935 42.8846 98.8434 41.886 100.745 41.9026C102.565 41.9191 103.899 43.0556 103.794 44.7107C103.656 46.9285 101.589 45.1631 100.569 45.9299C99.5931 45.2238 97.6636 46.774 97.5258 44.7714V44.7769Z" fill="white"/>
</g>
<defs>
<clipPath id="clip0_2_187">
<rect width="214" height="58" fill="white"/>
</clipPath>
</defs>
</svg>
