<svg width="166" height="66" viewBox="0 0 166 66" fill="none" xmlns="http://www.w3.org/2000/svg">
<g id="kakaoventures-white" clip-path="url(#clip0_2_171)">
<path id="Vector" d="M106.532 54.08C106.532 56.8851 106.367 59.6983 106.579 62.4793C106.807 65.5168 104.208 66.0057 103.313 64.8837C101.437 62.5194 100.346 64.4429 99.0662 64.9558C93.1154 67.3442 88.358 64.6593 87.8948 58.2556C87.5808 53.8717 87.8634 49.4556 87.7221 45.0556C87.6279 42.2585 89.5356 43.1161 90.933 42.9879C92.5188 42.8356 93.6885 42.9879 93.5943 45.2159C93.4373 48.9427 93.6022 52.6855 93.5315 56.4203C93.4766 59.0892 94.2224 60.8363 97.2448 60.7642C99.9925 60.7001 101.139 59.554 100.942 56.5966C100.699 52.8779 101.076 49.111 100.817 45.4003C100.644 42.8596 101.947 42.9398 103.643 42.9638C105.245 42.9879 106.768 42.6913 106.579 45.2881C106.367 48.2054 106.532 51.1547 106.532 54.0881V54.08Z" fill="white"/>
<path id="Vector_2" d="M45.8952 53.7718C45.8952 51.103 46.0915 48.4181 45.8481 45.7733C45.5105 42.0625 48.3367 42.1827 49.6085 43.3769C51.367 45.0279 52.1521 43.962 53.4553 43.3529C59.877 40.3554 64.6816 43.3288 64.9563 50.5419C65.1055 54.5332 64.9014 58.5485 65.0584 62.5398C65.1448 64.7438 64.2655 65.2166 62.3029 65.1926C60.3245 65.1685 59.1469 64.9602 59.2804 62.4276C59.4845 58.5725 59.2804 54.6935 59.3432 50.8305C59.3903 47.9292 57.7024 47.1037 55.3159 47.256C53.2041 47.3922 51.2414 47.6327 51.4612 50.8225C51.7282 54.6694 51.3749 58.5565 51.579 62.4195C51.7125 64.9121 50.6212 65.2086 48.5801 65.1926C46.6567 65.1765 45.7068 64.8319 45.8481 62.5718C46.0365 59.6545 45.8952 56.7051 45.8952 53.7718Z" fill="white"/>
<path id="Vector_3" d="M156.006 65.6731C155.363 65.5609 153.698 65.3044 152.042 64.9758C150.487 64.6632 149.051 64.5671 149.726 62.0024C150.338 59.6621 151.202 59.9507 152.945 60.4796C154.648 60.9926 156.469 61.5376 158.33 61.0727C159.241 60.8483 160.143 60.5678 160.34 59.4618C160.528 58.3798 159.947 57.6264 159.068 57.2257C157.411 56.4643 155.7 55.8472 154.028 55.1259C151.178 53.8917 149.844 51.7357 150.118 48.5219C150.377 45.4603 152.128 43.8093 154.813 42.8315C157.686 41.7736 160.473 42.3186 163.268 43.072C164.61 43.4326 165.78 43.9055 164.956 45.7889C164.351 47.1594 164.03 48.7062 162.043 47.3518C161.643 47.0793 161.038 47.0953 160.528 47.0472C158.754 46.8789 156.446 46.1336 155.763 48.3937C154.986 50.9583 157.639 51.1266 159.162 51.8159C161.407 52.8337 163.904 53.4028 165.184 55.8713C167.861 61.0246 163.927 65.7853 156.022 65.6891L156.006 65.6731Z" fill="white"/>
<path id="Vector_4" d="M10.1826 59.4503C11.7527 54.0004 13.3306 49.384 14.3669 44.6394C15.1127 41.2252 16.8948 42.764 18.6612 43.0685C21.3696 43.5334 20.2156 45.1443 19.721 46.5228C17.8212 51.8765 15.7565 57.1662 14.0136 62.576C13.3542 64.6357 12.3729 65.2128 10.3788 65.1807C8.39264 65.1407 7.05805 64.9964 6.31225 62.6081C4.57727 57.062 2.48118 51.6281 0.463582 46.1782C-0.0938071 44.6795 -0.588392 43.3009 1.65687 43.1807C3.09352 43.1086 5.04046 40.7603 5.88832 44.1825C7.10515 49.0474 8.58891 53.8401 10.1747 59.4423L10.1826 59.4503Z" fill="white"/>
<path id="Vector_5" d="M77.121 37.5469C77.1681 38.2041 77.3408 38.8693 77.2466 39.4944C76.8305 42.2033 77.7176 43.3895 80.5674 43.0369C81.8784 42.8766 83.7076 42.1953 83.7468 45.0165C83.7861 47.7414 82.1453 47.3487 80.7008 47.1563C78.0238 46.8117 76.8541 47.6613 77.2309 50.5706C77.4507 52.2696 77.3722 54.0329 77.2466 55.756C76.9954 59.2584 77.6705 61.7749 81.9255 60.5086C83.9039 59.9236 83.6134 61.6627 84.0766 62.5123C84.7125 63.6744 84.1629 64.2915 82.9461 64.8605C76.6421 67.7859 71.869 64.9327 71.6177 57.9119C71.5235 55.2511 71.5471 52.5902 71.5942 49.9294C71.6256 48.3345 71.6177 46.948 69.4274 47.1724C68.1635 47.3006 67.9515 46.435 68.03 45.3611C68.0928 44.4394 67.9437 43.4696 69.1919 43.1891C70.1026 42.9808 71.2017 43.3895 71.602 41.8186C72.5755 38.0358 72.6776 38.0598 77.1288 37.5549L77.121 37.5469Z" fill="white"/>
<path id="Vector_6" d="M112.355 53.7293C112.355 50.9322 112.543 48.1191 112.3 45.346C112.064 42.7333 114.106 42.2444 115.071 43.118C117.685 45.4663 119.507 43.2943 121.626 42.6371C122.883 42.2444 124.374 41.7154 125.363 42.597C126.455 43.5668 125.363 45.0655 125.34 46.3398C125.308 48.6641 123.605 47.8065 122.49 47.7183C119.177 47.4699 117.34 48.3435 117.811 52.3428C118.188 55.4925 117.756 58.7304 117.929 61.9202C118.054 64.2204 117.591 65.2462 115.008 65.2222C112.567 65.2061 112.229 64.1642 112.316 62.1125C112.441 59.3234 112.347 56.5183 112.347 53.7213L112.355 53.7293Z" fill="white"/>
<path id="Vector_7" d="M0.371489 16.2274C0.371489 11.7071 0.489248 7.1789 0.316535 2.66669C0.23803 0.590919 1.35281 0.0860011 2.83656 -0.0021592C4.98762 -0.122378 4.022 1.70494 4.02985 2.60258C4.1162 11.3785 4.07695 20.1545 4.0848 28.9304C4.0848 30.4212 4.32032 31.8397 2.01226 31.7836C-0.287957 31.7275 0.418593 30.1246 0.402892 28.9865C0.332237 24.7308 0.371489 20.4751 0.371489 16.2193V16.2274Z" fill="white"/>
<path id="Vector_8" d="M47.01 15.844C47.01 20.3563 47.01 24.8685 47.01 29.3807C47.01 30.6069 47.0807 31.7049 45.275 31.753C43.4694 31.8091 43.4773 30.8073 43.4851 29.5169C43.5008 20.6207 43.5558 11.7326 43.438 2.8364C43.4145 0.9129 44.2152 0.0633552 45.801 0.0393115C47.7558 0.0152678 46.9551 1.7384 46.9708 2.70015C47.065 7.07611 47.01 11.4601 47.01 15.836V15.844Z" fill="white"/>
<path id="Vector_9" d="M15.2935 31.8681C14.1865 31.9563 13.9039 31.0586 13.4564 30.5056C11.117 27.6444 8.8717 24.6871 6.49298 21.8579C5.58232 20.7759 5.3939 20.0546 6.36737 18.8524C8.53412 16.1916 10.536 13.3865 12.5615 10.6135C13.2523 9.66775 13.7312 9.05864 15.0187 10.0364C16.3768 11.0703 16 11.6954 15.2542 12.8896C13.5899 15.5825 9.5547 17.506 10.4261 20.816C11.1562 23.6211 14.2258 25.761 16.1413 28.2936C16.5731 28.8626 18.0176 29.2473 17.0284 30.4255C16.5338 31.0186 15.8351 31.4353 15.2935 31.8761V31.8681Z" fill="white"/>
<path id="Vector_10" d="M59.3998 11.3796C57.8218 13.4153 56.4951 15.4189 54.8778 17.134C52.8916 19.2338 52.7189 20.9329 54.9328 23.0328C56.6364 24.6517 57.9474 26.7034 59.4783 28.5147C60.2084 29.3723 60.8364 30.0295 59.5489 31.0153C58.4341 31.8728 57.7276 32.1453 56.7149 30.7989C54.3361 27.6331 51.8161 24.5635 49.2961 21.502C48.6209 20.6765 48.4796 20.0593 49.1862 19.1537C51.455 16.2364 53.6689 13.271 55.8513 10.2816C56.393 9.53622 56.8876 9.05534 57.7197 9.75261C58.2928 10.2335 58.8031 10.7945 59.3998 11.3716V11.3796Z" fill="white"/>
<path id="Vector_11" d="M36.4209 43.04C31.8518 41.0523 26.5056 42.8236 24.2289 47.0873C22.0386 51.1908 22.4704 59.1172 25.0532 62.331C27.691 65.617 33.6261 66.699 38.8545 64.7995C39.9144 64.4148 41.5551 64.5991 40.7779 62.315C40.1734 60.5598 39.6317 60.0068 37.8261 60.5919C35.3061 61.4093 32.6918 61.7059 30.3445 59.9427C29.2533 59.1252 28.3505 57.9551 28.7666 56.5605C29.1669 55.2141 30.5408 56.0396 31.4672 55.9274C32.6212 55.7831 33.8066 55.8953 34.9764 55.8953C36.5386 55.8953 38.1009 55.8633 39.6631 55.9033C40.6759 55.9274 41.3117 55.6869 41.6336 54.5248C42.717 50.6618 40.0243 44.6028 36.413 43.0319L36.4209 43.04ZM36.0833 51.4472C35.675 52.2968 34.4504 51.8319 33.5868 51.872C32.4249 51.9201 31.263 51.8399 30.109 51.8961C28.9942 51.9441 28.3583 51.6236 28.5389 50.8061C28.8765 48.6582 29.6458 47.3919 31.2944 46.8068C32.9745 46.2137 34.3876 46.6706 35.3689 48.1212C36.0283 49.091 36.6093 50.3573 36.0911 51.4472H36.0833Z" fill="white"/>
<path id="Vector_12" d="M141.323 43.0853C137.123 41.1618 131.895 42.5723 129.469 46.2911C126.76 50.4346 126.784 57.9763 129.524 61.8554C132.02 65.3898 137.319 66.7443 142.728 65.0452C143.992 64.6525 146.096 64.949 145.531 62.2641C144.974 59.5793 143.419 60.4769 141.826 60.7975C136.464 61.8955 134.399 60.7093 133.433 55.9006H138.513C140.342 55.9006 142.171 55.9647 143.992 55.8765C144.879 55.8284 145.986 56.4375 146.387 54.7224C147.305 50.7873 144.762 44.6641 141.331 43.0853H141.323ZM136.966 52.1177C135.812 51.1319 133.41 53.2237 133.339 50.6911C133.276 48.5592 134.587 46.5876 137.17 46.6117C139.463 46.6357 140.844 48.0222 140.758 50.3385C140.648 53.4241 138.128 51.0838 136.966 52.1177Z" fill="white"/>
<path id="Vector_13" d="M36.9734 23.1756C36.9734 21.5807 36.997 19.9777 36.9734 18.3828C36.8557 10.3362 31.1483 6.81782 23.9337 10.3603C23.2585 10.6889 21.9475 10.785 22.6619 12.2437C23.1329 13.2054 23.6746 13.7264 24.7815 13.2375C26.5008 12.4761 28.3221 12.3559 30.1435 12.5803C32.8048 12.9009 33.4171 14.8725 33.4956 17.1726C33.5899 20.09 31.376 18.7996 30.1356 18.9038C28.1887 19.0641 26.2182 18.9118 24.4126 19.8415C21.4607 21.3563 20.291 23.9289 20.9112 27.1027C21.5471 30.3726 23.6589 32.0557 27.066 31.9756C28.6833 31.9355 30.1435 31.4867 31.5723 30.8295C32.687 30.3165 33.6448 28.7136 34.5555 31.3424C34.8538 32.208 37.0127 32.1359 36.9891 29.9559C36.9656 27.6958 36.9891 25.4277 36.9891 23.1675L36.9734 23.1756ZM33.582 24.1854C33.3072 27.0947 31.2033 29.1144 27.8118 29.1304C25.5823 29.1384 24.4126 27.8961 24.2398 25.7482C24.0043 22.887 26.124 21.4364 30.7244 21.4043C32.4594 21.1078 33.8568 21.3482 33.5899 24.1774L33.582 24.1854Z" fill="white"/>
<path id="Vector_14" d="M80.0537 18.5815C79.936 10.4227 74.5348 6.93634 67.2024 10.3105C66.4801 10.6391 65.2162 10.7192 65.6715 12.1057C66.064 13.2919 66.8412 13.7808 68.0816 13.1877C69.5418 12.4904 71.1276 12.4744 72.682 12.5385C75.4533 12.6587 76.4503 14.438 76.5602 17.0427C76.6937 20.3046 74.26 18.5174 72.9725 18.9582C72.5015 19.1185 71.9362 18.9742 71.4181 18.9983C68.2151 19.1185 65.4517 20.1123 64.2898 23.4704C63.4105 26.003 63.6696 28.5837 65.7107 30.4671C68.2779 32.8314 71.2297 32.1903 74.1579 31.1003C75.3512 30.6515 76.6544 28.4875 77.7771 31.501C78.0518 32.2383 80.0302 32.038 80.0459 30.1786C80.0616 27.9185 80.0459 25.6584 80.0537 23.3983C80.0537 21.8034 80.0773 20.2085 80.0537 18.6136V18.5815ZM76.6387 24.1356C76.3718 27.117 74.3699 29.1367 70.9392 29.1367C68.5605 29.1367 67.1238 27.8464 67.3201 25.45C67.6341 21.6832 70.4446 21.3626 73.5692 21.4507C75.3434 21.2183 76.8978 21.2183 76.6387 24.1436V24.1356Z" fill="white"/>
<path id="Vector_15" d="M104.028 18.2176C103.471 12.944 100.362 9.68204 95.6122 9.36146C90.2582 9.00882 86.8824 11.4533 85.54 16.7269C84.7 20.0369 84.8177 23.3549 86.0503 26.5367C87.2985 29.7666 89.6537 31.6179 93.1236 31.9866C100.142 32.732 104.122 28.8048 104.169 20.5658C104.138 20.0689 104.122 19.1312 104.02 18.2015L104.028 18.2176ZM99.7338 25.8154C98.8938 27.9793 97.1431 29.1414 94.8821 29.2536C92.5898 29.3658 90.9098 28.2278 89.7871 26.2001C88.8451 24.501 88.9079 22.6256 88.8137 19.9647C88.9471 19.1793 89.057 17.5684 89.5124 16.0697C90.2425 13.6573 91.9931 12.383 94.4739 12.3108C96.9311 12.2387 98.7996 13.3687 99.7181 15.693C101.029 19.027 101.029 22.4733 99.7338 25.8154Z" fill="white"/>
</g>
<defs>
<clipPath id="clip0_2_171">
<rect width="166" height="66" fill="white"/>
</clipPath>
</defs>
</svg>
