<svg width="239" height="60" viewBox="0 0 239 60" fill="none" xmlns="http://www.w3.org/2000/svg">
<g id="springcamp-white" clip-path="url(#clip0_2_147)">
<path id="Vector" d="M130.18 16.48C129.232 11.3545 125.947 7.66258 121.953 4.6641C119.568 2.87439 117.014 1.30253 114.248 0.110165C113.6 -0.1686 113.626 0.131248 113.533 0.459207C113.142 1.84132 112.807 3.24217 112.395 4.61959C112.164 5.3903 112.423 5.76276 113.128 6.04153C114.798 6.69979 116.498 7.27606 118.106 8.11235C121.046 9.64439 123.704 11.4903 125.506 14.3834C127.187 17.082 127.032 19.8392 125.697 22.6011C125.316 23.3905 120.091 26.895 119.679 27.0941C118.312 27.7571 117.516 27.8367 116.364 27.9983C114.62 28.3802 111.752 27.8508 110.006 27.7102C107.353 27.4947 104.801 26.8599 102.396 25.6722C102 25.4754 101.635 25.295 101.69 24.7609C101.394 24.5642 101.054 24.4704 100.735 24.3276C100.635 24.2994 100.543 24.2526 100.46 24.1847C100.208 24.03 99.9808 23.8098 99.8143 23.435C99.0463 21.6992 100.016 19.4339 101.297 18.436C102.877 17.2062 104.651 16.7798 106.603 17.0328C107.1 17.0961 108.204 17.2085 108.838 17.2764C109.233 15.9459 109.455 14.2991 109.164 12.842C108.06 12.5937 107.107 12.6335 106.254 12.6311C103.14 12.6358 98.4449 14.3108 96.7472 17.6091C95.6646 19.7104 95.6739 21.9545 95.9908 24.1917C96.1458 25.2833 96.5552 28.3029 101.949 30.7509C105.546 32.3836 109.418 32.7959 113.336 32.7842C115.055 32.7795 117.146 35.4008 117.306 37.0711C117.044 37.2515 116.674 37.4201 116.383 37.5607C115.737 37.8746 115.037 37.8535 114.352 37.9261C114.197 37.8933 114.049 37.8488 113.905 37.7949C111.5 38.2869 109.111 38.0878 106.726 37.5138C104.697 37.0242 102.861 36.1762 101.359 34.6723C101.302 34.6629 100.485 33.6486 100.469 33.4706C100.182 32.9716 100.083 32.639 99.5113 32.0393C99.081 31.5871 99.0186 31.4934 98.4981 30.8774C97.7996 30.0457 97.6423 29.7178 96.997 28.5512C96.4904 29.5351 95.9306 31.1069 96.1342 33.4706C96.2452 34.7566 97.1358 36.8228 97.4642 37.2796C97.0895 38.329 96.768 39.765 96.6222 40.7067C96.2383 43.1898 96.8674 45.338 98.7618 47.0902C100.15 48.3763 101.771 49.1798 103.497 49.8333H103.499C104.396 50.173 105.359 50.2456 106.265 50.5478C108.558 50.9133 110.836 50.9297 113.089 50.2714C113.346 50.1964 113.635 50.0699 113.827 50.3487C114.007 50.6087 113.834 50.8524 113.704 51.0983C113.258 51.9463 112.58 52.5624 111.819 53.1036C110.346 54.2959 108.599 54.6614 106.784 54.741C104.894 54.823 103.066 54.4318 101.304 53.7642C100.529 53.4713 99.9623 53.4643 99.8073 54.4669C99.7773 54.6567 99.6824 54.8324 99.5645 54.9893C99.5367 55.3993 99.3586 55.8397 99.7935 56.1559C100.154 56.3808 100.552 56.5331 100.931 56.7228C104.383 58.4399 108.03 58.9834 111.648 57.6762C115.624 56.2403 118.018 52.4547 118.164 47.9078C118.164 47.8797 120.815 46.1485 121.344 41.9108C121.467 40.2523 121.37 39.4535 121.37 39.4535C122.066 39.1115 122.737 38.4298 122.737 38.4298C124.097 36.9727 124.668 35.1268 125.001 33.1918C125.038 31.9948 125.543 30.8399 125.327 29.6241C125.228 29.0595 125.445 28.6262 125.825 28.2654C126.671 27.4666 127.342 26.5272 128.066 25.6183C130.238 22.8939 130.784 19.7221 130.185 16.4847L130.18 16.48ZM112.291 46.2984C111.345 46.5093 110.392 46.603 109.418 46.6006C106.721 46.4179 104.056 46.1157 101.78 44.4033C100.841 43.6958 100.302 42.8057 100.511 41.5969C100.645 40.8262 101.015 40.2125 101.933 40.6201C104.896 41.9413 108.012 42.2669 111.195 42.0771C112.314 42.0092 113.003 42.4754 113.524 43.4218C114.447 45.1037 114.118 45.8908 112.291 46.2984ZM115.502 44.3494L116.323 41.3439C116.323 41.3439 117.033 41.0534 117.491 40.8285C117.491 40.8285 117.68 42.5878 115.502 44.3471V44.3494ZM120.412 34.67C120.412 34.67 120.493 33.6767 119.938 32.7303C119.936 32.7303 119.933 32.7256 119.931 32.7256V32.7186C119.801 32.5007 119.64 32.2852 119.434 32.0838C119.434 32.0838 120.664 31.7816 121.668 31.1069C121.668 31.1069 121.622 32.9552 120.414 34.6723L120.412 34.67Z" fill="#BABABA"/>
<g id="Group">
<path id="Vector_2" d="M180.145 39.4349C180.145 36.0429 180.148 32.6485 180.145 29.2565C180.145 28.5889 180.284 28.0759 181.105 28.1578C181.811 28.2281 182.747 27.8674 182.773 29.1581C182.784 29.6829 182.518 30.4582 183.018 30.6808C183.626 30.9502 183.916 30.1256 184.313 29.7648C187.512 26.8671 192.92 27.6565 195.548 31.5124C196.179 32.44 196.388 32.3909 196.989 31.5077C199.348 28.0524 202.462 27.4691 205.568 28.2539C209.008 29.123 211.321 32.2081 211.547 35.8742C211.834 40.5102 211.591 45.1555 211.677 49.7961C211.698 50.9556 210.907 50.8104 210.167 50.8596C209.35 50.9135 208.971 50.6535 208.978 49.7563C209.008 45.5443 209.008 41.3301 208.996 37.1181C208.987 34.033 207.634 31.824 205.281 30.9713C201.789 29.7039 198.048 31.9973 197.405 35.7899C197.234 36.7949 197.202 37.8045 197.202 38.8188C197.206 42.4076 197.179 45.9964 197.22 49.5852C197.232 50.5387 196.945 50.8924 195.969 50.8737C195.053 50.8549 194.544 50.7331 194.553 49.6134C194.59 45.1672 194.6 40.7187 194.523 36.2725C194.468 33.1077 191.87 30.6527 188.743 30.648C185.574 30.6433 182.9 33.1475 182.854 36.3006C182.787 40.7069 182.789 45.1156 182.821 49.5243C182.828 50.5621 182.477 50.8737 181.482 50.876C180.462 50.8783 180.152 50.5082 180.166 49.4962C180.215 46.144 180.185 42.7895 180.185 39.4349H180.141H180.145Z" fill="white"/>
<path id="Vector_3" d="M74.8515 31.6769C75.1799 31.1568 75.321 30.8125 75.5616 30.5735C78.1175 28.0225 81.1661 27.1464 84.5687 28.2919C88.2742 29.5381 90.4554 32.2906 90.7978 36.2191C91.191 40.7285 90.8718 45.2661 90.9527 49.7919C90.9736 50.8812 90.3305 50.8343 89.5973 50.8531C88.827 50.8742 88.2488 50.8296 88.2557 49.7778C88.2835 45.6034 88.2904 41.4266 88.2395 37.2522C88.2071 34.5161 86.9095 32.4663 84.5178 31.2412C80.0096 28.9314 74.6687 32.136 74.5415 37.2545C74.4397 41.272 74.5207 45.2918 74.5115 49.3117C74.5091 50.743 73.6764 51.3146 72.3603 50.8203C71.7682 50.5977 71.8838 50.0824 71.8815 49.6349C71.8746 44.992 71.8746 40.349 71.8746 35.7037C71.8746 33.5978 71.9185 31.4871 71.8607 29.3835C71.8283 28.2567 72.4042 28.1607 73.2971 28.1279C74.2894 28.0904 74.4721 28.5706 74.449 29.4046C74.4305 30.016 74.3472 30.6508 74.8538 31.6792L74.8515 31.6769Z" fill="white"/>
<path id="Vector_4" d="M65.7662 39.5479C65.7662 42.9399 65.7338 46.3343 65.787 49.7263C65.8032 50.743 65.3244 50.8625 64.5172 50.8765C63.6891 50.8906 63.0993 50.8297 63.1016 49.7451C63.1224 42.8814 63.1085 36.0177 63.1039 29.154C63.1039 27.6711 64.2419 28.3739 64.8919 28.238C65.6159 28.0881 65.787 28.6152 65.7847 29.2524C65.7755 32.6842 65.7801 36.1161 65.7801 39.5479H65.7639H65.7662Z" fill="white"/>
<path id="Vector_5" d="M149.475 46.6943C148.566 45.6635 148.402 45.5698 147.123 46.5888C143.036 49.8473 137.327 48.8986 134.662 44.354C132.072 39.9336 133.624 33.6743 138.174 31.47C141.451 29.884 144.609 30.3127 147.428 32.7068C147.939 33.1402 148.414 33.2339 148.793 32.6506C149.191 32.0369 150.345 31.47 149.473 30.6196C148.087 29.2656 146.445 28.2443 144.43 28.085C142.656 27.6282 140.882 27.7125 139.108 28.0873C137.531 28.1248 136.221 28.8814 135.037 29.8067C129.391 34.2248 129.319 42.4285 132.87 47.1159C136.786 52.2836 144.53 53.0449 149.272 48.6362C149.959 47.9967 150.172 47.4814 149.473 46.6919L149.475 46.6943Z" fill="white"/>
<path id="Vector_6" d="M64.4094 23.8682C63.2182 23.8588 62.3022 22.903 62.3369 21.7037C62.3693 20.5371 63.2621 19.6539 64.4071 19.6563C65.6076 19.6563 66.5004 20.5909 66.475 21.8161C66.4518 22.9686 65.5359 23.8775 64.4071 23.8705L64.4094 23.8682Z" fill="white"/>
<path id="Vector_7" d="M39.0189 31.6502C34.6981 26.1218 26.614 26.5762 23.3803 31.0084C23.2716 31.1583 23.1467 31.3433 22.92 31.2824C22.6725 31.2145 22.7164 30.9756 22.7118 30.7975C22.6979 30.2517 22.654 29.6989 22.7188 29.1601C22.883 27.8014 21.9601 28.0614 21.169 27.9818C20.1605 27.8787 20.0495 28.3894 20.0541 29.2257C20.0819 34.1005 20.068 38.9778 20.068 43.8526C20.068 48.7275 20.0981 53.6047 20.0472 58.4796C20.0356 59.529 20.3641 59.7914 21.3656 59.7727C22.3093 59.7539 22.7535 59.6087 22.735 58.5077C22.6725 54.8416 22.7026 51.1755 22.7095 47.5094C22.7095 47.2282 22.5684 46.8019 22.9848 46.7223C23.297 46.6613 23.3549 47.0549 23.5052 47.2657C25.8553 50.5219 29.806 51.8712 33.5115 50.817C41.2696 48.6104 44.2997 38.4109 39.0166 31.6502H39.0189ZM30.486 48.5237C27.0951 48.43 24.0488 45.9914 22.9339 42.1636C21.6548 37.776 23.3734 33.2642 27.2408 31.1091C31.0319 28.9961 35.8639 30.6874 37.9064 34.7869C38.5818 36.1433 39.012 37.94 39.0097 39.4018C39.0051 44.539 35.1631 48.6502 30.486 48.5213V48.5237Z" fill="white"/>
<path id="Vector_8" d="M174.439 29.3753C174.439 28.5624 174.14 28.2649 173.345 28.2907C172.602 28.3141 171.917 28.2766 171.947 29.3355C171.971 30.2186 171.952 31.1041 171.952 32.0575C171.369 32.013 171.256 31.7881 171.136 31.5984C168.381 27.2389 161.37 26.7352 157.336 29.9422C153.498 32.9899 152.205 37.0331 152.869 41.7627C153.547 46.5837 157.211 50.4396 161.738 51.1728C165.487 51.7795 168.776 50.9573 171.078 47.591C171.205 47.406 171.334 47.1483 171.605 47.2467C171.871 47.3451 171.809 47.6355 171.813 47.8557C171.823 48.4789 171.846 49.1067 171.804 49.7274C171.723 50.9081 172.477 50.8776 173.303 50.9104C174.184 50.9456 174.439 50.5708 174.436 49.7345C174.418 42.9481 174.418 36.1617 174.436 29.3729L174.439 29.3753ZM171.783 39.5514C171.677 46.2183 166.521 50.2616 160.835 48.2704C157.66 47.16 155.957 44.6136 155.411 41.2966C154.768 37.3775 156.383 33.5005 159.381 31.6241C163.583 28.9934 169.1 30.8488 171.008 35.5222C171.577 36.9136 171.82 38.3567 171.783 39.549V39.5514Z" fill="white"/>
<path id="Vector_9" d="M124.701 23.6164C123.947 24.366 121.713 26.0737 120.792 26.3947C120.605 26.0667 120.515 25.8793 120.373 25.5771C118.158 20.8756 114.218 18.5611 109.416 17.432C108.94 17.3196 108.716 17.3079 108.024 17.2353C107.955 17.0572 108.325 13.8994 108.785 12.8125C111.799 13.3115 114.292 14.0681 116.784 15.4573C117.45 15.8297 118.079 16.2654 118.727 16.673C120.991 18.4018 123.524 21.0115 124.701 23.6164Z" fill="#DEDEDE"/>
<path id="Vector_10" d="M15.3314 42.5913C14.4918 40.3705 12.7015 39.129 10.5318 38.4005C10.4485 38.3349 10.3606 38.3021 10.2727 38.2904C8.79699 37.6953 7.18247 37.5103 5.76456 36.7396C4.64041 36.1282 3.69668 35.4395 3.76145 33.9168C3.8239 32.4621 4.43455 31.4267 5.78538 30.9769C7.97585 30.2483 10.4115 30.4475 12.0191 32.8111C12.3661 33.3218 12.713 33.6404 13.3375 33.4413C15.1047 32.8744 15.3754 32.024 14.279 30.5107C14.1194 30.2905 13.9528 30.0773 13.7701 29.8782C11.2026 27.0999 5.53557 26.7673 2.63036 29.2223C0.64343 30.9019 -0.00885476 34.2658 1.20319 36.4093C1.21938 36.4538 1.24251 36.4983 1.2749 36.5428C2.13998 38.3934 3.76145 39.3164 5.51938 40.0566C7.18479 40.7594 9.03061 40.9211 10.622 41.8604C12.5141 42.9778 13.2034 45.1236 12.0839 46.5549C9.83787 49.4292 4.80695 49.0685 3.09759 45.9154C2.83622 45.4352 2.50776 45.0931 1.89943 45.2735C-0.263292 45.9201 -0.506164 46.6158 0.800719 48.4735C0.955694 48.6937 1.13149 48.9022 1.31653 49.0989C3.96499 51.8889 9.04449 52.4254 12.5395 50.2913C15.3684 48.5648 16.4856 45.6366 15.3337 42.5913H15.3314ZM9.86563 38.4543C9.8425 38.4426 9.81706 38.4309 9.79392 38.4169H9.85638C9.85869 38.4286 9.86332 38.4403 9.86794 38.4543H9.86563Z" fill="white"/>
<path id="Vector_11" d="M57.9576 28.572C54.939 27.4241 52.0384 27.2812 49.4802 29.7128C49.3252 29.8604 49.2003 30.1462 48.9296 30.022C48.6798 29.9072 48.74 29.6261 48.7284 29.3989C48.6613 28.0355 48.6128 28.0519 46.8988 28.0214C45.8394 28.0027 45.6104 28.4829 45.6173 29.4434C45.652 34.0817 45.6382 38.7176 45.6382 43.3558C45.6382 45.5391 45.6451 47.72 45.6197 49.9033C45.6104 50.7279 45.8995 51.1613 46.7646 51.0933C47.1093 51.0652 47.4562 51.0933 47.8032 51.0816C48.5688 51.0535 48.8973 50.6482 48.8487 49.8729C48.5989 45.7874 48.7007 41.695 48.7608 37.6072C48.7978 35.1381 49.7068 32.9736 51.8811 31.5634C53.2852 30.6521 54.8095 30.9028 56.3292 31.1183C56.7177 31.5751 57.2151 32.0717 57.7818 31.7063C58.4525 31.2729 58.9452 30.5397 59.0655 29.7245C59.1742 28.9936 58.478 28.7711 57.9552 28.572H57.9576Z" fill="white"/>
<path id="Vector_12" d="M96.9922 28.594C97.2628 27.9077 97.36 27.7273 97.4409 27.5938C98.2297 28.6081 99.976 29.8777 101.218 30.4634C101.38 30.5383 100.806 32.4241 100.462 33.5134C100.013 33.0355 98.1996 31.1404 98.0354 30.796C97.7393 30.1799 96.9922 28.5964 96.9922 28.5964V28.594Z" fill="#DEDEDE"/>
<path id="Vector_13" d="M101.268 34.6177C101.985 34.0297 102.79 34.2382 103.597 34.196C107.081 34.0109 110.291 34.8847 113.109 37.0094C113.523 37.321 113.888 37.5342 114.351 37.9699C113.328 38.2369 112.923 38.2416 112.204 38.3049C108.614 38.6141 105.45 37.8809 102.471 35.7046C102.068 35.4118 101.888 35.3181 101.266 34.6177H101.268Z" fill="#DEDEDE"/>
<path id="Vector_14" d="M116.857 27.952C115.92 28.2542 113.392 28.4252 112.42 28.3057C109.788 27.9848 107.114 27.9497 104.572 26.9775C103.575 26.5957 103.163 26.1084 102.171 25.7242C101.468 25.4502 100.513 24.3866 100.281 24.1055C101.248 23.3981 102.765 23.466 103.339 23.4262C106.198 23.2318 108.897 24.0844 111.592 25.1878C112.811 25.6868 114.625 26.8065 115.795 27.3945C116.033 27.514 116.63 27.8044 116.857 27.952Z" fill="#DEDEDE"/>
<path id="Vector_15" d="M120.026 32.7692C120.026 32.8465 120.843 34.1677 120.336 34.8353C119.73 35.6365 118.173 36.5805 117.287 37.0748C117.183 36.7164 117.142 36.461 117.063 36.2291C116.58 35.2265 116.55 35.2921 115.805 34.1958C115.647 33.9639 114.447 33.2307 113.809 32.8816C113.487 32.7059 116.105 32.802 116.316 32.72C117.586 32.6263 118.55 32.4201 119.524 32.0547C119.832 32.3335 120.021 32.7692 120.021 32.7692H120.026Z" fill="#DEDEDE"/>
<path id="Vector_16" d="M234.018 29.3272C230.731 26.727 223.868 26.6567 220.776 30.2315C220.637 30.3908 220.526 30.6484 220.068 30.5219C220.068 30.0066 220.068 29.4397 220.068 28.8728C220.068 28.5542 220.066 28.1981 219.726 28.0693C218.946 27.7718 218.102 27.746 217.352 28.0224C216.712 28.259 216.848 28.9993 216.848 29.5755C216.848 39.2527 216.871 48.9298 216.82 58.6069C216.813 59.8555 217.332 60.0288 218.34 59.9984C220.017 59.9492 220.066 59.9539 220.066 58.5788C220.07 55.2219 220.061 51.8674 220.075 48.5105C220.075 48.1474 219.906 47.7398 220.216 47.4212C220.54 47.4165 220.572 47.707 220.709 47.8709C223.635 51.3778 227.273 52.1578 231.115 50.8882C235.956 49.2905 238.468 45.5331 238.933 40.4895C239.354 35.9051 237.673 32.218 234.016 29.3249L234.018 29.3272ZM229.681 48.0326C227.04 48.6487 223.736 47.6531 222.029 45.3949C218.682 40.9674 219.323 35.4132 223.584 31.8853C225.871 29.9925 230.012 30.0136 232.311 31.9673C234.585 33.8999 235.769 36.376 235.836 39.939C236.003 43.0382 233.171 47.2174 229.681 48.0326Z" fill="white"/>
<path id="Vector_17" d="M109.416 17.4274C108.94 17.3149 108.669 17.2775 108.024 17.2306C107.954 17.0526 108.341 13.9721 108.801 12.8828" fill="#DEDEDE"/>
</g>
<path id="Vector_18" d="M97.4654 37.3203C97.4654 37.3203 99.2072 39.5059 101.564 40.5507C101.564 40.5507 100.493 40.5577 100.514 41.6423C100.535 42.7269 96.9219 39.0515 96.9219 39.0515L97.4631 37.3203H97.4654Z" fill="#DEDEDE"/>
<path id="Vector_19" d="M111.82 42.1488C111.82 42.1488 115.699 41.6662 116.571 41.2422C116.571 41.2422 116.918 41.7107 117.022 42.5915C116.682 43.3411 115.026 45.0629 113.775 45.6509C113.775 45.6509 114.753 43.5918 111.82 42.1488Z" fill="#DEDEDE"/>
<path id="Vector_20" d="M113.618 50.2371C113.618 50.2371 115.764 49.9162 118.158 47.9062C118.158 47.9062 118.059 49.5086 117.871 50.2418C117.684 50.975 113.477 51.5255 113.477 51.5255C113.477 51.5255 114.078 50.7853 113.62 50.2371H113.618Z" fill="#DEDEDE"/>
<path id="Vector_21" d="M117.491 40.8274C117.491 40.8274 119.663 40.1317 121.365 39.4453C121.365 39.4453 121.481 40.1598 121.379 41.2374C121.379 41.2374 120.1 41.7621 117.148 42.3313C117.148 42.3313 117.35 41.6848 117.488 40.8274H117.491Z" fill="#DEDEDE"/>
<path id="Vector_22" d="M121.661 31.108C121.661 31.108 124.782 29.665 125.612 28.4844C125.612 28.4844 125.429 30.4123 125.26 31.3493C125.26 31.3493 122.899 32.6963 121.328 32.8111C121.328 32.8111 121.43 32.3098 121.661 31.1104V31.108Z" fill="#DEDEDE"/>
</g>
<defs>
<clipPath id="clip0_2_147">
<rect width="239" height="60" fill="white"/>
</clipPath>
</defs>
</svg>
