<svg width="183" height="42" viewBox="0 0 183 42" fill="none" xmlns="http://www.w3.org/2000/svg">
<g id="alogic" clip-path="url(#clip0_2_133)">
<path id="Vector" d="M16.4797 19.5496C15.6231 19.8427 15.4936 20.5153 15.1967 21.0188C13.1142 24.5248 11.0165 28.0195 9.03679 31.5818C8.42385 32.6828 7.7005 33.0774 6.47461 33.006C4.89466 32.9158 3.30329 32.9947 1.71953 32.9797C-0.31346 32.9646 -0.359146 32.897 0.626895 31.2023C3.21192 26.7569 5.81598 22.3228 8.41243 17.8849C11.0698 13.3381 13.7728 8.81378 16.3464 4.22185C17.085 2.90665 17.915 2.37306 19.4645 2.39936C24.0863 2.47452 24.0863 2.40688 24.0863 6.91989C24.0863 12.5452 24.1282 18.1743 24.0558 23.7996C24.0368 25.2012 24.4708 25.6371 25.8909 25.5995C29.2487 25.5093 32.6142 25.607 35.9721 25.5544C37.118 25.5356 37.4873 25.9264 37.5368 27.0575C37.8071 32.9834 37.8337 32.9834 31.8909 32.9834C27.4518 32.9834 23.0127 32.9233 18.5736 33.0135C16.967 33.0473 16.4987 32.5024 16.5444 30.9693C16.6434 27.7827 16.5787 24.5924 16.5672 21.4059C16.5672 20.8084 16.5063 20.2147 16.4721 19.5458L16.4797 19.5496Z" fill="#2F2D35"/>
<path id="Vector_2" d="M161.073 21.8149C161.062 16.7758 163.955 12.6649 168.645 11.019C173.644 9.26791 179.26 10.6207 182.191 14.2281C183.131 15.3855 183.543 16.2836 181.753 17.0426C180.714 17.4823 179.77 18.1511 178.818 18.7637C177.409 19.673 176.21 20.6688 174.562 18.8238C173.557 17.7002 171.565 18.309 170.564 19.6054C169.468 21.0183 169.597 23.1677 170.854 24.419C172.019 25.5839 173.88 25.862 174.931 24.6482C176.1 23.303 176.964 23.7614 178.083 24.4942C179.244 25.2532 180.413 26.0348 181.67 26.6023C183.466 27.4102 183.192 28.2819 182.142 29.5333C179.191 33.0467 173.983 34.3582 168.939 32.7536C164.378 31.3032 161.279 27.3651 161.069 22.7506C161.054 22.4387 161.069 22.1268 161.069 21.8149H161.073Z" fill="#2F2D35"/>
<path id="Vector_3" d="M99.4695 17.8329C99.4695 22.2032 99.4238 26.5734 99.4961 30.9436C99.5189 32.2814 99.1915 32.8939 97.7144 32.8037C95.9479 32.6985 94.17 32.7436 92.3958 32.7849C91.3299 32.8112 90.9415 32.364 90.9453 31.3419C90.9644 22.2257 90.9644 13.1095 90.9453 3.99702C90.9453 2.89976 91.4631 2.62545 92.4682 2.65175C94.3032 2.7006 96.142 2.72315 97.9771 2.64424C99.1573 2.59539 99.4999 3.0388 99.4885 4.1586C99.4428 8.71671 99.4695 13.2748 99.4695 17.8329Z" fill="#2F2D35"/>
<path id="Vector_4" d="M151.231 21.7839C151.231 18.665 151.265 15.5423 151.212 12.4234C151.193 11.3187 151.516 10.8452 152.708 10.894C154.604 10.973 156.504 10.9504 158.403 10.9053C159.386 10.8828 159.759 11.2811 159.755 12.2205C159.74 18.5861 159.74 24.9479 159.762 31.3135C159.762 32.3281 159.405 32.7865 158.323 32.7602C156.427 32.7113 154.524 32.7113 152.628 32.7602C151.554 32.7903 151.2 32.3619 151.216 31.3247C151.261 28.142 151.231 24.9592 151.231 21.7764V21.7839Z" fill="#2F2D35"/>
<path id="Vector_5" d="M155.444 2.03209e-05C158.121 -0.00749511 160.253 2.07052 160.279 4.70844C160.306 7.33508 158.178 9.48074 155.524 9.49201C152.795 9.50704 150.769 7.50418 150.75 4.77984C150.727 2.05549 152.737 0.00753575 155.444 2.03209e-05Z" fill="#2F2D35"/>
<path id="Vector_6" d="M37.5066 6.20104C37.5066 8.29409 35.9495 9.87609 33.8556 9.91366C31.697 9.95124 29.9609 8.29784 29.9609 6.2048C29.9609 4.12678 31.7312 2.42453 33.848 2.46963C35.9114 2.51472 37.5066 4.14181 37.5066 6.20104Z" fill="#2F2D35"/>
<path id="Vector_7" d="M149.313 12.187C149.316 11.1912 148.905 10.8831 147.953 10.9056C145.989 10.9469 144.025 10.9094 142.06 10.9244C141.645 10.9244 141.112 10.8041 140.994 11.4242C140.804 12.45 140.316 11.7924 139.947 11.6008C134.092 8.52321 127.761 11.1048 126.009 17.4553C124.719 22.1412 125.214 26.6805 129.215 29.961C132.748 32.8544 136.757 32.7943 140.918 30.2654C141.032 32.2908 140.122 33.4557 138.527 34.0982C136.894 34.7558 135.215 34.6431 133.49 34.2786C132.044 33.9705 130.643 32.1743 129.47 33.001C128.351 33.7901 128.039 35.6915 127.376 37.1082C127.269 37.3336 127.209 37.5854 127.075 37.7958C126.47 38.7616 126.736 39.3252 127.776 39.8212C130.917 41.3281 134.217 42.0458 137.693 42.0007C144.447 41.9105 148.947 37.9273 149.217 31.3062C149.476 24.9444 149.275 18.5638 149.309 12.1907L149.313 12.187ZM137.697 25.3878C135.87 25.3691 134.408 23.6856 134.484 21.6865C134.56 19.7325 136.007 18.3008 137.846 18.3647C139.662 18.4248 140.986 19.9429 140.956 21.927C140.926 23.8472 139.46 25.4029 137.697 25.3841V25.3878Z" fill="#2F2D35"/>
<path id="Vector_8" d="M88.5533 30.7934C85.519 22.9849 82.481 15.1764 79.4467 7.36785C78.2284 4.23391 75.9086 2.66694 72.4873 2.66694C71.1548 2.66694 69.8223 2.71955 68.4975 2.65191C67.5761 2.60682 67.1307 3.00138 66.8299 3.80553C63.3845 12.9969 59.9315 22.1845 56.4403 31.3571C56.0216 32.4619 56.269 32.8113 57.4302 32.7926C59.8363 32.7512 62.2462 32.7475 64.6523 32.7926C65.6497 32.8113 66.0761 32.3792 66.4226 31.4999C67.9492 27.652 67.9759 27.6633 72.2665 27.6633C72.5825 27.6633 72.9099 27.7121 73.2145 27.6558C76.2335 27.0846 78.1751 28.1555 78.8604 31.1955C79.1688 32.5596 80.1206 32.8564 81.4188 32.8001C83.3147 32.7212 85.2183 32.785 87.1218 32.7775C89.3109 32.7663 89.3147 32.7587 88.5495 30.7897L88.5533 30.7934ZM73.7132 19.5804C70.5381 19.9374 70.3134 19.6969 71.3223 16.717C71.6764 15.6724 72.0685 14.6428 72.6053 13.151C73.3134 15.2628 73.8464 16.9124 74.4213 18.5433C74.6764 19.261 74.4975 19.4902 73.7094 19.5804H73.7132Z" fill="#2F2D35"/>
<path id="Vector_9" d="M112.617 10.2812C105.65 10.2812 100.598 15.1513 100.602 21.8625C100.602 28.5663 105.657 33.4175 112.636 33.4175C119.61 33.4175 124.643 28.5625 124.643 21.8437C124.643 15.1287 119.599 10.2812 112.617 10.2812ZM112.602 25.3873C110.85 25.376 109.388 23.7827 109.373 21.8738C109.358 19.8484 110.846 18.2965 112.746 18.3603C114.566 18.4205 115.879 19.9273 115.86 21.9227C115.841 23.8353 114.372 25.3948 112.602 25.3835V25.3873Z" fill="#2F2D35"/>
</g>
<defs>
<clipPath id="clip0_2_133">
<rect width="183" height="42" fill="white"/>
</clipPath>
</defs>
</svg>
