<svg width="110" height="73" viewBox="0 0 110 73" fill="none" xmlns="http://www.w3.org/2000/svg">
<g id="eoncare" clip-path="url(#clip0_2_89)">
<path id="Vector" d="M35.6574 64.9984C35.6574 66.9523 35.611 68.9062 35.6717 70.8602C35.7145 72.2311 35.3539 72.9616 33.7938 72.9724C32.1729 72.9832 31.7659 72.2635 31.7945 70.7846C31.8588 67.251 31.7945 63.7174 31.8302 60.1874C31.8409 59.367 31.4446 58.1759 32.7406 57.9996C33.9259 57.8377 35.2647 57.5102 36.1322 58.8596C37.4246 60.8675 38.7242 62.8754 40.038 64.8689C40.3236 65.3007 40.6878 65.6785 41.2376 66.3514C41.5981 64.0305 41.4125 62.0226 41.4161 60.0291C41.4161 58.7229 41.5874 57.8665 43.2261 57.8665C44.8291 57.8665 45.0826 58.6509 45.0648 59.9931C45.0148 63.5267 45.0683 67.0603 45.0326 70.5903C45.0255 71.4179 45.3968 72.5802 44.1365 72.8141C42.9369 73.0372 41.6588 73.2603 40.7913 71.8965C39.2883 69.536 37.7174 67.2186 36.1751 64.8869L35.6574 64.9984Z" fill="#2F2D35"/>
<path id="Vector_2" d="M49.2031 65.4059C49.1996 61.9479 50.6205 59.4362 53.4302 58.3999C56.4113 57.3024 59.2852 57.5075 61.7165 59.8321C62.4734 60.5553 63.3945 61.3254 62.9839 62.5668C62.7804 63.1857 60.1742 63.1893 59.296 62.6316C59.096 62.5056 58.9389 62.3185 58.7497 62.171C57.0111 60.7928 55.2153 60.8828 53.8586 62.4157C52.5055 63.9414 52.5055 66.8956 53.8586 68.3854C55.1082 69.7635 57.261 69.8355 58.839 68.5509C59.0246 68.3998 59.1746 68.2054 59.3674 68.0687C60.1492 67.5218 62.884 67.3922 63.0803 67.9572C63.5087 69.177 62.5662 69.9794 61.8879 70.7459C59.9386 72.9409 56.4613 73.5814 53.4909 72.3903C50.6812 71.264 49.2067 68.8603 49.2031 65.4095V65.4059Z" fill="#2F2D35"/>
<path id="Vector_3" d="M100.996 65.3622C100.996 63.3831 101.013 61.4076 100.988 59.4285C100.974 58.3742 101.438 57.8956 102.488 57.9064C104.509 57.928 106.529 57.9172 108.55 57.9064C109.482 57.9028 109.971 58.2627 109.982 59.2846C109.989 60.3245 109.621 60.8679 108.543 60.8463C107.711 60.8319 106.879 60.8607 106.047 60.8715C105.116 60.8823 104.626 61.3105 104.623 62.3C104.619 63.3004 105.108 63.707 106.051 63.6998C106.586 63.6962 107.122 63.7286 107.657 63.7106C108.728 63.6746 109.325 64.0524 109.303 65.2651C109.282 66.4777 108.625 66.8088 107.59 66.8016C107.054 66.798 106.519 66.8232 105.983 66.8232C105.001 66.8232 104.623 67.3413 104.616 68.2913C104.609 69.2377 104.969 69.7738 105.962 69.7738C106.733 69.7738 107.508 69.8206 108.279 69.7846C109.453 69.7271 110.014 70.1553 109.999 71.4399C109.985 72.6993 109.328 72.944 108.3 72.9332C106.397 72.9116 104.494 72.908 102.591 72.9224C101.478 72.9296 100.967 72.4294 100.985 71.2887C101.017 69.3132 100.992 67.3341 100.996 65.355V65.3622Z" fill="#2F2D35"/>
<path id="Vector_4" d="M0.0113927 65.4453C0.0113927 63.4734 0.0363838 61.4979 0.000682277 59.526C-0.0207386 58.3889 0.461232 57.8887 1.5894 57.9067C3.54584 57.9355 5.50586 57.9247 7.4623 57.9067C8.45838 57.8995 9.01889 58.2522 9.01175 59.3641C9.00818 60.4508 8.49051 60.8682 7.48015 60.8502C6.709 60.8394 5.93785 60.8718 5.16669 60.8682C4.16705 60.8646 3.61368 61.2784 3.63153 62.3651C3.64581 63.3942 4.20989 63.7073 5.11671 63.7037C5.77005 63.7001 6.41982 63.7217 7.07316 63.7361C7.96569 63.7541 8.32628 64.2398 8.31914 65.1142C8.31557 65.9239 8.11921 66.532 7.1874 66.6148C6.48051 66.6759 5.77362 66.8019 5.06316 66.8091C3.98854 66.8235 3.61011 67.3668 3.62439 68.3923C3.63867 69.3891 4.12778 69.7849 5.06316 69.7777C5.83431 69.7705 6.60547 69.8137 7.37662 69.7921C8.44767 69.7597 9.04031 70.134 9.02603 71.3394C9.01175 72.5125 8.45124 72.9335 7.37662 72.9263C5.4773 72.9119 3.58155 72.9047 1.68222 72.9299C0.471943 72.9479 -0.0207386 72.3829 0.00425243 71.1811C0.0435241 69.2703 0.0149629 67.356 0.0149629 65.4417L0.0113927 65.4453Z" fill="#2F2D35"/>
<path id="Vector_5" d="M94.147 68.0988C93.8078 67.5123 93.79 67.0877 94.4112 66.5767C96.5604 64.8027 97.1638 63.0287 96.3926 60.992C95.5179 58.6891 93.5936 58.0306 91.398 57.9262C89.9164 57.8543 88.424 57.9586 86.9388 57.8938C85.6286 57.8399 85.0859 58.466 85.0859 59.7074C85.0859 61.5642 85.0859 63.4209 85.0859 65.2813H85.168C85.168 67.3755 85.1395 69.4734 85.1788 71.5676C85.2038 72.9494 86.2177 72.9314 87.2173 72.9386C88.2776 72.9458 88.931 72.5824 88.906 71.3913C88.8882 70.373 88.9203 69.3546 88.9417 68.3363C88.9488 68.034 89.006 67.6922 89.3451 67.6166C89.6772 67.5411 89.8807 67.8145 90.0306 68.0808C90.5626 69.0164 91.2159 69.9088 91.58 70.9091C92.2834 72.8306 93.6864 73.1149 95.4322 72.935C96.5033 72.8271 96.6247 72.3665 96.1248 71.5208C95.4572 70.3874 94.8075 69.2431 94.147 68.106V68.0988ZM90.3555 64.6947C89.0024 64.7523 88.8275 63.8959 88.906 62.7948C88.7632 61.503 89.4165 61.0208 90.6732 61.082C91.8514 61.1396 92.8332 61.4382 92.8189 62.8488C92.8046 64.4824 91.6015 64.6408 90.3555 64.6947Z" fill="#2F2D35"/>
<path id="Vector_6" d="M20.2983 57.8281C15.8391 57.8353 12.8331 60.8903 12.8438 65.3991C12.8545 69.8575 15.9605 72.9952 20.3554 72.9952C24.636 72.9952 27.9063 69.6632 27.8813 65.3271C27.8563 60.8724 24.7717 57.8209 20.2983 57.8281ZM20.2554 69.4724C17.8563 69.4401 16.4389 67.8352 16.5103 65.2192C16.5746 62.7651 18.0919 61.1494 20.3375 61.1386C22.6153 61.1314 24.1683 62.8946 24.1148 65.4315C24.0648 67.8028 22.4404 69.5012 20.2554 69.4724Z" fill="#2F2D35"/>
<path id="Vector_7" d="M80.9486 70.9221C79.6027 67.1474 78.2068 63.3907 76.9322 59.5945C76.4895 58.2739 75.7469 57.8241 74.4295 57.8888C73.1621 57.95 72.0161 57.8277 71.477 59.4685C70.2632 63.1604 68.853 66.7876 67.5713 70.4543C67.3285 71.1452 66.643 71.9656 67.2785 72.6205C67.8819 73.2467 68.8565 72.9228 69.6777 72.8832C70.4631 72.8436 70.7987 72.2607 70.9951 71.6058C71.3271 70.4939 72.0947 70.1341 73.1657 70.1773C73.8762 70.206 74.5938 70.2096 75.3042 70.1773C76.3217 70.1305 77.0393 70.4759 77.2857 71.5482C77.5534 72.7069 78.3567 73.0415 79.2957 72.9336C81.3699 72.966 81.5841 72.6889 80.9522 70.9221H80.9486ZM75.1293 67.1474C74.4795 67.4497 73.687 67.4857 73.0729 67.1294C72.3874 66.7336 72.8301 66.0499 73.0158 65.5282C73.3192 64.6718 73.4156 63.7002 74.3439 62.761C74.7259 63.8441 75.0579 64.7077 75.3257 65.5893C75.4863 66.1219 75.9004 66.7912 75.1329 67.1474H75.1293Z" fill="#2F2D35"/>
<g id="Group">
<path id="Vector_8" d="M55.1855 9.74369e-05C42.3972 -0.0358862 32.1794 9.8992 32.133 22.4215C32.0866 34.7531 42.1687 44.9185 54.4928 44.9652C67.5203 45.012 77.8024 35.1957 77.8416 22.677C77.8773 10.2194 67.706 0.0360811 55.1855 9.74369e-05ZM54.8606 43.5475C43.9966 43.9073 33.4111 34.5444 33.4539 22.4215C33.4968 10.439 43.8431 1.26312 54.9998 1.37827C66.8991 1.49702 76.3636 10.8168 76.4029 22.5726C76.4422 33.8463 66.7099 43.9181 54.857 43.5475H54.8606Z" fill="#2F2D35"/>
<path id="Vector_9" d="M66.9407 16.7125C65.8269 11.6676 61.9211 9.71009 57.2192 11.5345C55.9839 11.7827 54.8237 12.8119 53.4777 11.9015L53.492 11.9159C53.492 11.9159 53.4813 11.9051 53.4777 11.9015C53.2635 11.8007 53.0493 11.7 52.8386 11.6028C50.9929 9.83603 47.6798 9.98357 45.734 11.9195C43.8169 14.0173 42.703 16.4822 42.5102 19.3321C42.1425 24.8232 43.567 29.8645 46.3481 34.5532C47.0157 36.0573 48.1403 37.2016 49.2649 38.3531C53.6848 42.8834 59.0507 42.1565 62.8494 35.9638C63.0421 35.6615 63.2385 35.3628 63.4313 35.0606C67.0371 29.4183 68.3902 23.2867 66.9407 16.7161V16.7125ZM47.1407 34.1934C44.3774 28.2705 43.4991 22.218 46.1553 16.0252C47.0764 13.8806 48.5116 13.2761 50.6216 13.6827C52.91 14.1253 53.2813 14.9781 52.2531 17.0687C50.6608 20.2965 48.6794 23.5458 49.3328 31.2247C49.3328 31.2247 50.2003 37.1332 50.925 38.4646C50.925 38.4646 48.8365 36.9209 47.1442 34.1898L47.1407 34.1934ZM51.4106 38.148C50.1218 35.9673 50.0182 30.2531 50.0182 30.2531C50.0468 25.7372 51.4213 21.743 53.7383 18.0115C54.5452 16.7161 55.2985 16.8277 56.1589 17.9899C57.4084 19.674 59.4184 24.323 59.5827 25.255C60.3824 29.7674 61.0714 35.1541 58.1725 39.1771C55.3092 41.113 53.6276 40.8575 51.4106 38.1444V38.148ZM65.145 26.2158C64.7094 29.6846 63.542 32.9267 61.7712 35.9386C61.1785 36.651 60.5859 37.3635 59.9932 38.0724L59.3899 38.6049C59.7398 37.6586 60.1039 36.9245 60.2646 36.3704C61.0179 33.7688 61.2321 28.7742 60.2824 24.2799C59.4934 20.5556 57.6262 17.1083 57.08 16.2627C56.4516 15.2876 56.8408 14.7622 57.7012 14.2692C60.136 12.8838 62.5388 13.5387 63.8633 16.0684C65.5448 19.2745 65.5805 22.7362 65.145 26.2086V26.2158Z" fill="#2F2D35"/>
<path id="Vector_10" d="M58.1982 6.65152C58.2374 5.28054 57.7662 4.15785 56.206 3.96714C54.9422 3.81601 53.7248 4.90631 53.5855 6.31327C53.5106 7.07972 53.5641 7.86057 53.557 8.63062C53.532 9.64176 53.3999 10.7609 54.5066 11.2754C55.3313 11.6568 55.9989 10.9084 56.4738 10.2499C56.4738 10.2499 58.1518 8.14124 58.1946 6.65152H58.1982ZM56.3274 8.02969C56.2596 8.6774 56.1525 9.15598 55.6312 9.9944C54.553 11.3546 54.2567 9.71373 54.2567 8.83213C54.2746 8.40752 54.3638 7.87136 54.5852 7.47195C54.8636 6.97537 55.2635 6.62273 55.7705 6.78106C56.3203 6.95378 56.3774 7.5619 56.3274 8.02609V8.02969Z" fill="#2F2D35"/>
</g>
</g>
<defs>
<clipPath id="clip0_2_89">
<rect width="110" height="73" fill="white"/>
</clipPath>
</defs>
</svg>
