<svg width="141" height="59" viewBox="0 0 141 59" fill="none" xmlns="http://www.w3.org/2000/svg">
<g id="merchsquare" clip-path="url(#clip0_2_102)">
<g id="Group">
<path id="Vector" d="M27.9027 26.7962V18.6106C27.9027 15.317 26.6621 13.4219 23.9751 13.4219C22.3617 13.4219 21.0989 14.4322 19.8805 15.7622C19.2964 14.2952 18.2338 13.4219 16.3701 13.4219C14.7735 13.4219 13.544 14.3694 12.4647 15.5225H12.3813L12.1532 13.7415H9.71094V26.7962H12.6928V17.6745C13.6775 16.5785 14.5676 16.0476 15.3576 16.0476C16.6928 16.0476 17.3159 16.8582 17.3159 19.0045V26.7962H20.2978V17.6745C21.2825 16.5785 22.1503 16.0476 22.9625 16.0476C24.2977 16.0476 24.9208 16.8582 24.9208 19.0045V26.7962H27.9027Z" fill="black"/>
<path id="Vector_2" d="M42.4669 19.621C42.4669 15.9734 40.6533 13.4219 37.2152 13.4219C34.2222 13.4219 31.3516 16.0362 31.3516 20.2774C31.3516 24.5186 34.1054 27.1101 37.6213 27.1101C39.2347 27.1101 40.7701 26.5336 41.9829 25.6945L40.9704 23.7937C40.0358 24.3873 39.1067 24.7412 38.0163 24.7412C35.9635 24.7412 34.517 23.4226 34.2667 21.1051H42.3389C42.4057 20.7855 42.4669 20.2032 42.4669 19.6153V19.621ZM34.2333 19.0273C34.4948 16.9324 35.7966 15.7965 37.2764 15.7965C39.0177 15.7965 39.8856 17.018 39.8856 19.0273H34.2278H34.2333Z" fill="black"/>
<path id="Vector_3" d="M48.7228 16.0684H48.6393L48.4113 13.7394H45.969V26.7941H48.9509V18.8311C49.7186 16.8447 50.9425 16.1312 51.955 16.1312C52.4835 16.1312 52.8173 16.2168 53.2624 16.3424L53.7798 13.6823C53.3959 13.4997 52.9898 13.4141 52.3389 13.4141C50.9759 13.4141 49.6296 14.3616 48.7228 16.0627V16.0684Z" fill="black"/>
<path id="Vector_4" d="M61.7109 15.9164C62.5065 15.9164 63.1518 16.2646 63.8249 16.8753L65.2769 14.8889C64.3534 14.0612 63.174 13.4219 61.5607 13.4219C58.1727 13.4219 55.1797 15.9278 55.1797 20.2774C55.1797 24.6271 57.8445 27.1101 61.3104 27.1101C62.7624 27.1101 64.2756 26.5907 65.4661 25.5061L64.2533 23.4854C63.5301 24.1133 62.6177 24.61 61.6219 24.61C59.6414 24.61 58.245 22.8861 58.245 20.2717C58.245 17.6574 59.6636 15.9164 61.7165 15.9164H61.7109Z" fill="black"/>
<path id="Vector_5" d="M75.5598 13.42C73.8185 13.42 72.5556 14.3676 71.4875 15.395L71.6099 12.8777L71.621 5.497C71.621 2.55157 69.2844 0.148413 66.4138 0.142705L5.235 0H5.22387C3.8275 0 2.52014 0.553696 1.53545 1.56405C0.545196 2.58011 0 3.92154 0 5.3543V53.6457C0 56.5969 2.34212 59 5.21831 59H64.6391V55.9176H5.21831C3.9944 55.9176 3.00414 54.8958 3.00414 53.6457V5.3543C3.00414 4.74352 3.2378 4.1727 3.65504 3.74458C4.07228 3.31647 4.62861 3.08243 5.21831 3.08243L66.3971 3.21943C67.6155 3.21943 68.6113 4.2412 68.6113 5.49129L68.6224 26.7886H71.6043V17.6669C72.6502 16.6052 73.3845 16.0401 74.5027 16.0401C75.8824 16.0401 76.4833 16.8506 76.4833 18.9969V26.7886H79.4651V18.603C79.4651 15.3094 78.2746 13.4143 75.5486 13.4143L75.5598 13.42Z" fill="black"/>
</g>
<g id="Group_2">
<path id="Vector_6" d="M60.4365 37.9837C59.0569 37.4643 57.7718 37.0704 57.7718 36.0372C57.7718 35.221 58.3782 34.5931 59.6577 34.5931C60.6591 34.5931 61.5548 35.0611 62.4449 35.729L63.8134 33.8453C62.7787 33.0233 61.36 32.2812 59.5854 32.2812C56.737 32.2812 54.9568 33.9195 54.9568 36.18C54.9568 38.4404 56.865 39.3423 58.5284 39.9873C59.8858 40.5182 61.2655 41.0091 61.2655 42.1051C61.2655 42.9956 60.6146 43.6691 59.2238 43.6691C57.9331 43.6691 56.8427 43.1154 55.7134 42.2135L54.3281 44.16C55.5687 45.2103 57.4046 45.9752 59.1459 45.9752C62.3559 45.9752 64.086 44.1657 64.086 41.9281C64.086 39.4964 62.1611 38.6459 60.4421 37.9837H60.4365Z" fill="black"/>
<path id="Vector_7" d="M82.5078 32.6016V40.7871C82.5078 44.0808 83.6983 45.9759 86.4243 45.9759C88.1656 45.9759 89.3951 45.0911 90.5133 43.7326H90.5968L90.8248 45.6562H93.2671V32.6016H90.2852V41.5406C89.3228 42.8135 88.5884 43.3501 87.4702 43.3501C86.0905 43.3501 85.4897 42.5395 85.4897 40.3933V32.6016H82.5078Z" fill="black"/>
<path id="Vector_8" d="M97.0134 42.1507C97.0134 44.4226 98.5488 45.9752 100.774 45.9752C102.276 45.9752 103.584 45.2103 104.718 44.2114H104.802L105.03 45.6556H107.472V37.9267C107.472 34.2905 105.909 32.2812 102.727 32.2812C100.707 32.2812 98.9049 33.0918 97.5085 33.9937L98.6045 36.0372C99.7227 35.3351 100.913 34.7529 102.176 34.7529C103.895 34.7529 104.446 35.9231 104.485 37.3273C99.2665 37.9038 97.0078 39.3594 97.0078 42.1507H97.0134ZM104.49 39.2281V42.1622C103.55 43.0526 102.76 43.5778 101.725 43.5778C100.691 43.5778 99.8896 43.0755 99.8896 41.9224C99.8896 40.6038 101.041 39.6791 104.49 39.2338V39.2281Z" fill="black"/>
<path id="Vector_9" d="M117.697 34.9984C118.225 34.9984 118.559 35.084 119.004 35.2096L119.522 32.5495C119.138 32.3669 118.732 32.2812 118.081 32.2812C116.718 32.2812 115.372 33.2288 114.465 34.9299H114.381L114.153 32.6009H111.711V45.6556H114.693V37.6926C115.461 35.7062 116.684 34.9926 117.697 34.9926V34.9984Z" fill="black"/>
<path id="Vector_10" d="M132.037 38.4804C132.037 34.8328 130.224 32.2812 126.786 32.2812C123.792 32.2812 120.922 34.8956 120.922 39.1368C120.922 43.378 123.676 45.9695 127.192 45.9695C128.811 45.9695 130.34 45.393 131.553 44.5539L130.535 42.6531C129.601 43.2467 128.671 43.6006 127.581 43.6006C125.528 43.6006 124.082 42.282 123.831 39.9645H131.909C131.976 39.6448 132.037 39.0626 132.037 38.4747V38.4804ZM123.804 37.8867C124.065 35.7918 125.367 34.6559 126.847 34.6559C128.588 34.6559 129.456 35.8774 129.456 37.8867H123.798H123.804Z" fill="black"/>
<path id="Vector_11" d="M135.837 0.0546875H79.7987V3.02295H135.837C137.089 3.02295 138.107 4.06755 138.107 5.3519V53.6547C138.107 54.9391 137.089 55.9837 135.837 55.9837H80.4886C79.2368 55.9837 78.2188 54.9391 78.2188 53.6547V32.6029H75.8655L75.604 33.8701H75.5206C74.4525 32.8084 73.4344 32.2889 72.0102 32.2889C69.223 32.2889 66.625 34.8919 66.625 39.1445C66.625 43.3971 68.6778 45.9772 71.8433 45.9772C73.1507 45.9772 74.4246 45.2751 75.3426 44.3504L75.2313 46.5252V48.0721H75.2202V53.6547C75.2202 56.5773 77.5401 58.9519 80.3829 58.9519H135.832C138.68 58.9519 140.994 56.5716 140.994 53.6547V5.35761C140.994 2.43501 138.674 0.0603957 135.832 0.0603957L135.837 0.0546875ZM75.2313 41.9757C74.3913 42.9975 73.5623 43.4428 72.5777 43.4428C70.7418 43.4428 69.6848 41.9415 69.6848 39.1045C69.6848 36.2675 71.02 34.8119 72.6389 34.8119C73.5012 34.8119 74.3579 35.0974 75.2313 35.8965V41.9757Z" fill="black"/>
</g>
</g>
<defs>
<clipPath id="clip0_2_102">
<rect width="141" height="59" fill="white"/>
</clipPath>
</defs>
</svg>
