<svg width="94" height="61" viewBox="0 0 94 61" fill="none" xmlns="http://www.w3.org/2000/svg">
<g id="mintchalk" clip-path="url(#clip0_2_118)">
<path id="Vector" d="M6.58094 24.8026C6.64117 25.7656 6.3701 26.7036 6.28643 27.6532C6.14922 29.2031 5.925 30.7446 5.71416 32.2861C5.51169 33.7808 4.81057 35.1384 4.53949 36.6231C2.67877 46.8301 8.95202 54.9306 17.5963 56.6961C24.5055 58.1089 30.5746 56.452 35.4355 51.1437C35.8472 50.694 36.1216 50.6471 36.5834 51.0517C37.1674 51.5634 37.7966 52.0348 38.4475 52.4578C39.0666 52.8591 38.9913 53.1918 38.5496 53.6917C35.474 57.1609 31.6823 59.4147 27.1443 60.3543C21.5872 61.5063 16.1171 61.2254 11.0253 58.5854C4.87583 55.3971 1.32004 50.1991 0.295974 43.3726C-0.557416 37.6898 0.376293 32.3396 3.86013 27.6047C4.53782 26.6852 5.27742 25.8158 6.10404 25.025C6.2195 24.9146 6.32827 24.7708 6.58094 24.8009V24.8026Z" fill="#2F2D35"/>
<path id="Vector_2" d="M45.6915 46.9021C46.662 44.8924 48.1496 43.9495 50.2546 44.1702C52.6625 44.4226 53.9978 45.6883 54.0865 48.1025C54.2154 51.5483 54.1384 55.0025 54.1618 58.4534C54.1652 58.868 53.9828 58.9767 53.6096 58.9683C52.9687 58.9533 52.3262 58.9332 51.6887 58.9784C51.098 59.0218 50.934 58.8062 50.9407 58.226C50.9691 55.5827 50.9541 52.9377 50.9541 50.2944C50.9541 49.96 50.9591 49.6256 50.9357 49.2929C50.8604 48.2647 50.5726 47.3468 49.4464 47.0258C48.3521 46.7132 47.405 47.0542 46.6403 47.8601C45.8471 48.6977 45.6313 49.7711 45.6145 50.8696C45.5777 53.2905 45.566 55.7114 45.5945 58.1324C45.6028 58.7844 45.4321 59.0436 44.7578 58.9767C44.2056 58.9232 43.6417 58.9299 43.0878 58.9767C42.4787 59.0285 42.3499 58.7644 42.3516 58.2076C42.3683 52.279 42.37 46.352 42.3549 40.4234C42.3549 39.8884 42.4955 39.661 43.0527 39.7078C43.8525 39.7747 44.8766 39.3784 45.4004 39.8583C45.9358 40.3482 45.556 41.3847 45.576 42.1806C45.6129 43.6552 45.5928 45.1298 45.5995 46.6045C45.5995 46.6513 45.6279 46.6981 45.6915 46.8971V46.9021Z" fill="#2F2D35"/>
<path id="Vector_3" d="M83.8524 51.5271C85.8185 49.3937 87.6458 47.4576 89.4111 45.468C89.903 44.913 90.3917 44.6488 91.1313 44.7073C91.8642 44.7658 92.6054 44.7207 93.5726 44.7207C92.3394 46.0766 91.307 47.3071 90.1658 48.4273C89.4563 49.1262 89.386 49.693 89.8562 50.5774C91.1329 52.985 92.3009 55.4527 93.509 57.8971C93.6546 58.193 93.7868 58.4956 93.9977 58.9504C92.8749 58.9504 91.8675 58.9604 90.8585 58.9454C90.5038 58.9404 90.4636 58.6026 90.3431 58.3619C89.2488 56.1767 88.1561 53.9915 86.9915 51.6658C85.9356 52.8613 84.9149 53.9514 83.9795 55.11C83.6415 55.528 83.8641 56.1382 83.8607 56.6565C83.8406 58.9638 83.8507 58.9387 81.5616 58.9788C80.8939 58.9905 80.7233 58.7899 80.7266 58.1345C80.7517 52.261 80.75 46.3876 80.7316 40.5141C80.73 39.9206 80.8421 39.6347 81.5064 39.7049C82.2493 39.7835 83.2115 39.4123 83.69 39.8521C84.1803 40.3018 83.839 41.2749 83.844 42.0155C83.8641 45.1036 83.8524 48.1916 83.8524 51.5254V51.5271Z" fill="#2F2D35"/>
<path id="Vector_4" d="M52.466 19.9261C52.9446 19.0349 53.3629 18.3126 53.9703 17.7342C55.2889 16.4769 56.8384 16.3582 58.4749 16.93C60.1984 17.5335 61.02 18.8711 61.1539 20.6132C61.4049 23.9186 61.2241 27.2323 61.2777 30.5411C61.286 31.0142 61.1053 31.1513 60.6435 31.1731C58.0064 31.3035 58.008 31.3152 58.0064 28.7086C58.0064 26.5385 58.0097 24.3683 57.9946 22.1965C57.9846 20.7102 57.3889 19.7572 56.3498 19.5014C55.14 19.2021 53.8515 19.8792 53.2039 21.1599C52.7388 22.0795 52.6534 23.0793 52.6484 24.0841C52.635 26.1707 52.6267 28.2589 52.6568 30.3455C52.6651 30.9373 52.5363 31.2349 51.8787 31.1714C51.1073 31.0978 50.1167 31.484 49.6147 31.0243C49.0993 30.5544 49.4574 29.553 49.4524 28.7872C49.4323 25.0856 49.4607 21.3856 49.4256 17.684C49.4189 17.0086 49.6247 16.8497 50.269 16.8581C52.369 16.8832 52.3656 16.8581 52.3673 18.9497C52.3673 19.2155 52.4192 19.483 52.4643 19.9244L52.466 19.9261Z" fill="#2F2D35"/>
<path id="Vector_5" d="M68.5738 23.3149C68.5738 24.2612 68.5671 25.2075 68.5754 26.1538C68.5938 28.1417 68.9452 28.5664 70.9398 28.6449C71.6761 28.6734 71.7313 28.9643 71.7263 29.5428C71.7129 31.33 71.7296 31.3401 69.9107 31.4103C69.2749 31.4354 68.6357 31.4504 68.0149 31.2281C66.3248 30.6228 65.5668 29.6916 65.5233 27.8876C65.4614 25.3563 65.4564 22.8216 65.4932 20.2904C65.5032 19.5581 65.3192 19.2437 64.5729 19.3825C63.8182 19.523 63.5538 19.1852 63.6777 18.4663C63.691 18.3844 63.6793 18.2991 63.6793 18.2155C63.6777 16.9281 63.6777 16.9047 64.9962 16.8913C65.4915 16.8863 65.7024 16.7425 65.7007 16.2309C65.7007 15.7611 65.7643 15.288 65.8279 14.8198C65.9015 14.2848 65.612 13.5007 66.1006 13.2716C66.7181 12.9824 67.5129 13.056 68.2324 13.0092C68.6156 12.9841 68.5604 13.3168 68.5637 13.5525C68.5754 14.4437 68.6022 15.3348 68.5637 16.2243C68.542 16.7442 68.721 16.9214 69.228 16.8863C69.7267 16.8529 70.232 16.9031 70.7323 16.873C71.246 16.8429 71.4753 16.985 71.4853 17.5618C71.5138 19.3892 71.5389 19.3875 69.725 19.3825C68.3847 19.3792 68.5922 19.3039 68.5771 20.5579C68.5654 21.4758 68.5754 22.3953 68.5754 23.3132L68.5738 23.3149Z" fill="#2F2D35"/>
<path id="Vector_6" d="M76.8796 49.3461C76.8796 52.2937 76.8612 55.2413 76.8929 58.1873C76.8996 58.8092 76.7306 59.045 76.0981 58.9764C75.3301 58.8911 74.3395 59.2874 73.8392 58.8243C73.3254 58.3494 73.6852 57.3513 73.6819 56.5839C73.6635 51.2455 73.6852 45.907 73.6517 40.5686C73.6467 39.8613 73.8492 39.6189 74.5353 39.7125C75.2949 39.8145 76.3173 39.3631 76.7557 39.9065C77.1272 40.3679 76.8762 41.341 76.8796 42.0883C76.8863 44.5076 76.8812 46.9269 76.8796 49.3445V49.3461Z" fill="#2F2D35"/>
<path id="Vector_7" d="M45.5862 24.0838C45.5862 26.1954 45.5678 28.3087 45.5979 30.4203C45.6062 31.0105 45.4088 31.1727 44.8332 31.1811C42.3634 31.2178 42.3634 31.2346 42.365 28.7869C42.365 25.0902 42.3818 21.3936 42.3517 17.6987C42.3466 17.0333 42.5541 16.8577 43.2017 16.8594C45.5862 16.8661 45.5862 16.8443 45.5862 19.2486C45.5862 20.8603 45.5862 22.472 45.5862 24.0838Z" fill="#2F2D35"/>
<path id="Vector_8" d="M21.6794 18.9956C22.8775 18.9672 24.0622 19.1227 25.2519 19.2163C25.8426 19.2631 26.1538 19.447 25.7991 20.1325C25.4059 20.8932 25.1013 21.7024 24.7901 22.5033C24.6278 22.9196 24.4102 23.1219 23.9267 23.0651C22.7955 22.933 21.6593 22.841 20.5198 22.9714C20.2571 23.0015 20.0462 22.9597 19.9224 22.6605C19.5108 21.6606 19.0874 20.6642 18.6407 19.6811C18.4348 19.228 18.6607 19.1862 19.0239 19.1327C19.9074 19.0023 20.7959 19.0073 21.6827 18.9973L21.6794 18.9956Z" fill="#2F2D35"/>
<path id="Vector_9" d="M45.5805 13.5446C45.5783 14.6659 45.0077 15.2266 43.8687 15.2266C42.8625 15.2266 42.3594 14.71 42.3594 13.6767C42.3594 11.8777 42.3594 11.8644 44.1766 11.8777C45.8733 11.8894 45.547 11.6687 45.5822 13.5463L45.5805 13.5446Z" fill="#2F2D35"/>
<path id="Vector_10" d="M66.3594 56.7991C66.3962 56.6135 66.4347 56.4313 66.6689 56.3594C66.8965 56.7606 66.8446 57.1937 66.8279 57.6217C66.5652 57.4077 66.7744 56.9245 66.3594 56.7974V56.7991Z" fill="#2F2D35"/>
<path id="Vector_11" d="M18.1129 18.3981C16.1283 13.8371 14.1823 9.2577 12.2212 4.685C11.607 3.25384 10.9796 1.82936 10.3571 0.401545C10.2701 0.202586 10.2316 -0.0548895 9.91868 0.0103153C9.66433 0.0621449 9.68274 0.28451 9.65597 0.473437C9.60242 0.829556 9.54553 1.18735 9.50202 1.54514C8.72728 7.80313 7.95254 14.0595 7.18281 20.3175C7.0205 21.6433 6.8766 22.9708 6.71094 24.4203C7.77684 23.6563 8.56497 22.7919 9.74131 22.297C9.5288 24.1729 9.328 25.9334 9.09875 27.9531C11.4414 25.7846 13.9463 24.3903 16.7609 23.5677C17.2244 23.4322 17.1357 23.2266 16.9851 22.9006C16.5785 22.0178 16.2271 21.1099 15.8104 20.2305C15.6012 19.7891 15.7686 19.627 16.1668 19.5517C16.6588 19.4581 17.1491 19.3377 17.6444 19.2909C18.3036 19.229 18.3773 19.0083 18.1129 18.4014V18.3981ZM15.1561 19.8226C13.3423 20.2924 11.6472 21.0431 10.0291 21.9777C9.99063 21.9994 9.92202 21.9727 9.78314 21.9643C10.24 18.2493 10.6951 14.541 11.1519 10.831C11.2841 10.6939 11.2038 10.2542 11.6104 10.5083C12.4788 12.5096 13.349 14.5092 14.2157 16.5105C14.6006 17.4016 14.9721 18.2994 15.3603 19.1906C15.4841 19.4748 15.5745 19.7139 15.1561 19.8226Z" fill="#2F2D35"/>
<path id="Vector_12" d="M11.6147 10.5064C11.3688 10.4813 11.3169 10.7321 11.1562 10.8291C11.1562 10.5198 11.1562 10.2104 11.1562 9.83594C11.5629 10.0232 11.5344 10.294 11.6147 10.508V10.5064Z" fill="#2F2D35"/>
<path id="Vector_13" d="M37.4862 21.4752C36.9089 16.62 36.2948 11.7681 35.6891 6.91449C35.4247 4.79282 35.1452 2.67115 34.8725 0.549487C34.8457 0.337153 34.8926 0.0679738 34.5897 0.02116C34.2852 -0.0273257 34.25 0.253557 34.1546 0.440812C34.0542 0.638098 33.9773 0.84876 33.8903 1.05273C32.5198 4.2762 31.1477 7.49966 29.7773 10.7231C28.6461 13.3831 27.5216 16.0482 26.3737 18.7032C26.1562 19.2081 26.183 19.4556 26.8021 19.5291C27.2957 19.586 27.7743 19.7649 28.2596 19.8886C28.6879 19.9973 28.8452 20.1645 28.6076 20.6426C28.211 21.4368 27.9433 22.2945 27.5484 23.0886C27.279 23.6287 27.4647 23.8159 27.9567 23.9831C30.311 24.7856 32.3675 26.0697 34.158 27.8001C34.5947 28.2231 34.9177 28.7849 35.5268 29.1075C35.4381 27.4256 35.0331 25.849 35.0365 24.2322C35.0248 23.9798 35.0515 23.8076 35.1603 23.6772C35.254 23.5668 35.4163 23.5919 35.5368 23.7039C36.4103 24.2322 37.0428 25.0431 37.9313 25.8423C37.9581 24.2389 37.6519 22.8596 37.4862 21.4736V21.4752ZM34.6115 22.8128C34.414 22.9031 34.2567 22.7008 34.1011 22.5971C32.6369 21.6224 31.0958 20.8081 29.4175 20.2631C29.1414 20.1745 28.8151 20.136 29.0243 19.6545C30.3663 16.5598 31.6815 13.4517 33.0051 10.3503C33.7229 12.8615 33.8718 15.4078 34.2149 17.9258C34.409 19.3552 34.5696 20.7881 34.7269 22.2226C34.7487 22.4182 34.8775 22.6941 34.6148 22.8144L34.6115 22.8128Z" fill="#2F2D35"/>
<path id="Vector_14" d="M70.1151 58.3094C69.7989 57.338 69.8507 56.3332 69.8306 55.3317C69.7804 52.884 69.9595 50.433 69.7135 47.9903C69.5596 46.4522 68.7263 45.3871 67.2788 44.9056C64.9546 44.1315 62.607 44.2151 60.3262 45.0862C59.1716 45.5276 58.3166 46.3736 57.8414 47.5439C57.4883 48.4133 57.5368 48.4819 58.4873 48.629C58.8721 48.6892 59.2603 48.731 59.6435 48.7979C60.097 48.8748 60.3948 48.8346 60.5505 48.2745C60.7379 47.5974 61.2867 47.1845 61.9594 46.9604C62.9667 46.626 63.9958 46.6277 65.0098 46.8551C66.1661 47.1126 66.6112 47.783 66.6865 49.0185C66.7283 49.7107 66.5911 49.9699 65.803 49.9782C63.6327 50.0033 61.4507 50.0903 59.4528 51.1218C57.925 51.911 57.1352 53.1683 57.1486 54.887C57.1637 56.5823 57.8932 57.8948 59.4193 58.6856C61.8891 59.9646 64.6066 59.2122 66.3568 56.7963C66.6831 56.6241 66.7066 56.8816 66.7501 57.0839C66.7886 57.2594 66.7116 57.4534 66.8254 57.6206C67.1087 58.5167 67.7357 58.9654 68.7062 58.9665C68.9839 58.9665 69.2651 58.9514 69.5412 58.9715C70.0482 59.0099 70.2891 58.8478 70.1134 58.3061L70.1151 58.3094ZM66.6731 52.9359C66.6262 55.4437 65.1086 56.9083 62.6689 56.798C61.5795 56.7495 60.7462 56.151 60.522 55.2582C60.2626 54.2199 60.7077 53.185 61.6967 52.6399C62.8713 51.9929 64.1665 51.8207 65.1905 51.7638C66.1934 51.7259 66.6876 52.1166 66.6731 52.9359Z" fill="#2F2D35"/>
</g>
<defs>
<clipPath id="clip0_2_118">
<rect width="94" height="61" fill="white"/>
</clipPath>
</defs>
</svg>
